<?xml version="1.0" encoding="UTF-8"?><svg id="Austin_copy" xmlns="http://www.w3.org/2000/svg" viewBox="0 0 3961.85 2773.3"><defs><style>.cls-1{fill:#00ccc8;}.cls-2{fill:#ffffce;}.cls-3{fill:#ffffc7;}.cls-4{fill:#ec5203;}.cls-5{fill:#ffb400;}.cls-6{fill:#55c4c8;}.cls-7{fill:#613a60;}</style></defs><rect class="cls-5" x="62" y="44.06" width="3851.99" height="2683.72"/><g><g><g><path class="cls-4" d="m3545.84,763.99c3.1-2.48,6.19-5.06,9.19-7.66l-44.47-51.16c-2.32,2.01-4.68,3.97-7.07,5.89l42.35,52.93Z"/><path class="cls-4" d="m3099.32,662.61c1.74,3.61,3.59,7.23,5.49,10.78l56.84-30.44c-1.51-2.75-2.97-5.52-4.37-8.33l-57.96,27.99Z"/><path class="cls-4" d="m3312.91,755.79l-14.76,65.04c3.9.89,7.88,1.7,11.83,2.43l12.06-65.67c-.09-.02-.19-.03-.28-.05-2.98-.52-5.92-1.12-8.85-1.75Z"/><path class="cls-4" d="m3297.64,249.86c-3.89.89-7.82,1.87-11.68,2.92l16.46,60.44c3.04-.81,6.1-1.57,9.18-2.26l-13.95-61.1Z"/><path class="cls-4" d="m3545.28,306.13c-3.1-2.47-6.31-4.91-9.52-7.26l-38.06,52.05c2.5,1.87,4.94,3.8,7.35,5.76l40.23-50.55Z"/><path class="cls-4" d="m3099.08,408.48c-1.73,3.6-3.4,7.27-4.97,10.91l57.47,24.8c1.23-2.9,2.53-5.76,3.88-8.6l-56.38-27.1Z"/><path class="cls-4" d="m3588.96,535.13l66.86-.07c0-3.93-.09-7.92-.25-11.87-.01-.28-.02-.56-.04-.83l-66.68,3.09c.11,3.22.14,6.44.11,9.68Z"/><path class="cls-2" d="m3686.78,690.59c1.98-4.13,3.9-8.35,5.72-12.55l-122.76-53.15c-1.16,2.66-2.36,5.29-3.62,7.89l120.67,57.82Z"/><path class="cls-2" d="m3003.92,535.81c0,4.63.1,9.33.29,13.96l129.53-5.19c-.14-2.96-.23-5.92-.25-8.9l-129.56.14Z"/><path class="cls-2" d="m3686.38,379.16c-1.92-3.98-3.95-7.98-6.03-11.91-.18-.34-.36-.67-.53-1.01l-116.47,62.14c1.41,2.72,2.78,5.47,4.08,8.25l118.95-57.47Z"/><path class="cls-2" d="m3442.16,185.03c-4.49-1.02-9.07-1.96-13.62-2.8l-23.7,127.54c2.92.57,5.81,1.19,8.68,1.86l28.64-126.6Z"/><path class="cls-2" d="m3443.51,885.26c4.51-1.04,9.07-2.18,13.55-3.4l-35.08-129.08c-2.8.78-5.63,1.5-8.46,2.17l30,130.31Z"/><path class="cls-2" d="m3138.68,254.88c-3.61,2.89-7.22,5.89-10.72,8.91l84.19,97.32c2.25-1.95,4.54-3.85,6.87-5.71l-80.34-100.53Z"/><path class="cls-2" d="m3139.66,816.48c3.61,2.87,7.33,5.7,11.05,8.43l77.95-106.41c-2.38-1.71-4.72-3.47-7.03-5.26l-81.97,103.25Z"/></g><circle class="cls-2" cx="3361.22" cy="533.26" r="183.23"/></g><g><path class="cls-1" d="m3306.74,460.04c-.16.65.15,1.35.78,1.66.73.36,1.61.06,1.97-.66,1.4-2.82,2.41-5.69,3.22-8.7.78-3.01,1.31-6.14,1.27-9.45-.03-1.65-.23-3.35-.69-5.06-.47-1.71-1.26-3.46-2.52-4.97-1.24-1.51-2.93-2.7-4.68-3.41-.91-.37-1.72-.59-2.56-.78-.84-.2-1.7-.33-2.56-.41-3.47-.35-7,.3-10.07,1.66-3.09,1.33-5.77,3.25-8.11,5.4-2.36,2.14-4.36,4.57-6.16,7.09-1.78,2.56-3.33,5.17-4.6,8.06-.28.63-.08,1.4.51,1.8.67.46,1.58.29,2.04-.38l.04-.07c3.24-4.72,7.06-9.26,11.39-12.75,2.18-1.73,4.51-3.19,6.94-4.14,2.44-.93,4.96-1.35,7.44-1.07.62.07,1.24.17,1.85.32.61.14,1.24.34,1.72.52,1.01.39,1.85.97,2.52,1.75.67.78,1.2,1.78,1.58,2.92.38,1.15.59,2.43.7,3.76.41,5.36-.68,11.25-2.01,16.84l-.02.07Z"/><path class="cls-1" d="m3417.16,458.03c-1.09-1.49-2.42-2.89-4.01-4.04-1.59-1.15-3.43-2.04-5.36-2.51-1.92-.47-4-.56-5.98-.21-1.98.34-3.85,1.07-5.46,2.05-3.24,1.97-5.69,4.59-7.7,7.37-2.02,2.77-3.61,5.73-4.99,8.75-1.33,3.05-2.47,6.1-3.27,9.37-.17.71.17,1.47.85,1.79.78.37,1.72.04,2.09-.74l.03-.06c2.66-5.6,5.76-11.18,9.56-15.78,1.93-2.25,4.03-4.33,6.36-5.57,2.31-1.28,4.69-1.7,7.05-1.07,4.79,1.03,8.09,6.24,10.05,11.85,1.97,5.67,3.04,11.95,3.69,18.12v.06c.08.73.66,1.32,1.41,1.4.86.09,1.63-.54,1.72-1.41.33-3.34.28-6.6.05-9.91-.28-3.3-.77-6.61-1.7-9.9-.9-3.28-2.26-6.55-4.4-9.56Z"/><path class="cls-1" d="m3273.2,400.55h.07c8.56,1.87,17.24,3.65,25.86,5.3,4.32.83,8.64,1.63,12.97,2.4,4.31.79,8.79,1.5,13.16,2.11,4.39.61,8.8.86,13.03,1.17,2.11.15,4.19.36,5.97.8.88.22,1.68.5,2.25.85.58.35.94.72,1.2,1.34.51,1.27.2,3.41-.45,5.34-.62,1.99-1.6,3.93-2.57,5.9-.95,1.97-1.98,3.92-3,5.87-1,1.96-2.09,3.89-3.16,5.82-8.55,15.47-18.13,30.37-27.29,45.5l-6.83,11.37-6.71,11.44c-4.46,7.64-8.86,15.32-13.13,23.06h0c-.11.19-.21.41-.27.63-.36,1.32.41,2.68,1.73,3.04l.09.02,59.01,16.26h0s.12.03.12.03c.18.04.36.08.55.1,2.11.22,4.01-1.31,4.23-3.42.49-4.69,1.08-9.48,1.77-14.21.67-4.74,1.42-9.48,2.23-14.2,1.59-9.46,3.49-18.86,5.55-28.23,4.22-18.71,9.31-37.24,15.83-55.26,3.3-8.97,6.94-17.9,11.07-26.41.48-.91,1.1-1.63,1.83-2.09.73-.46,1.58-.63,2.52-.63,1.88.02,3.97.85,5.98,1.77,2.03.97,4.05,2.08,6.13,3.12,2.07,1.05,4.2,2.03,6.38,2.96l13.08,5.8c2.17.98,4.45,1.92,6.53,2.88,2.14.98,4.29,1.98,6.45,3.01,8.66,4.05,17.33,8.25,26.24,12.01h0c.72.31,1.58.09,2.07-.57.56-.77.39-1.85-.38-2.41-7.84-5.73-15.97-10.91-24.32-15.88-2.09-1.23-4.22-2.43-6.38-3.6-2.23-1.17-4.31-2.26-6.49-3.34-4.31-2.18-8.67-4.28-13.15-6.26-4.45-2.03-9.25-3.51-14.5-4.06-2.62-.26-5.36-.4-8.28.26-1.44.34-2.94.96-4.12,1.99-1.2.99-2.05,2.24-2.67,3.47-4.26,8.81-7.89,17.72-11.24,26.81-3.35,9.07-6.41,18.23-9.2,27.48-2.8,9.24-5.46,18.53-7.85,27.89-2.49,9.33-4.7,18.73-6.9,28.15-1.82,8.06-3.59,16.09-5.24,24.23l-52.29-11.73c4.1-6.52,8.08-13.11,11.99-19.74l6.71-11.46,6.54-11.56c8.6-15.48,16.78-31.2,25.37-46.7,2.11-3.9,4.32-7.74,6.38-11.71,1.04-1.97,2.08-3.97,2.99-6.15.44-1.09.88-2.21,1.18-3.45.3-1.23.52-2.61.28-4.16-.2-1.55-1.06-3.15-2.14-4.26-1.08-1.12-2.27-1.9-3.42-2.53-2.31-1.25-4.57-2.03-6.79-2.77-4.45-1.4-8.81-2.32-13.18-3.02-2.18-.36-4.36-.64-6.53-.98-2.16-.33-4.33-.66-6.55-.96-4.41-.63-8.84-1.13-13.28-1.53-4.44-.41-8.91-.66-13.38-.77-4.5-.06-8.94-.08-13.53.42-.72.08-1.34.61-1.5,1.36-.2.94.39,1.86,1.33,2.06Z"/><path class="cls-1" d="m3471.83,516.58c-3.45-1.43-7.23-.43-8.44,2.22-.96,2.11,0,4.63,2.17,6.29-5.84,12.1-14.13,22.98-23.58,32.53-10.9,10.89-23.32,20.21-36.76,27.61-6.74,3.66-13.73,6.83-20.91,9.43-1.81.61-3.6,1.28-5.42,1.85l-5.48,1.63c-3.69.93-7.39,1.88-11.14,2.48l-2.8.52-2.83.36-2.83.36-1.41.18-1.42.09-5.67.37-5.68.04c-7.57-.11-15.11-.93-22.51-2.46-7.38-1.66-14.57-4.04-21.54-7-6.89-3.15-13.57-6.71-19.73-11.04-6.09-4.4-11.64-9.48-16.5-15.16-4.85-5.69-8.92-12.04-12.08-18.86-6.39-13.63-9.27-28.89-9.6-44.22-.13-7.67.23-15.39,1.21-23.06.47-3.84,1.08-7.66,1.82-11.46.6-3.09,1.28-6.22,2.09-9.24,3.68.08,6.7-1.5,6.98-3.8.31-2.54-2.84-4.99-7.04-5.47-4.2-.48-7.85,1.19-8.16,3.73-.25,2.04,1.75,4.02,4.72,4.97-2.34,6.72-4.01,13.55-5.34,20.51-1.41,7.84-2.32,15.81-2.48,23.83-.4,16.01,2.13,32.4,8.68,47.44,3.31,7.49,7.65,14.56,12.86,20.91,5.19,6.38,11.32,11.93,17.91,16.78l5.09,3.41,1.27.85,1.33.76,2.66,1.51c3.49,2.12,7.22,3.72,10.88,5.49,7.5,3.15,15.25,5.67,23.21,7.42,7.98,1.61,16.1,2.46,24.23,2.53l6.09-.12,6.07-.48,1.52-.12,1.5-.21,3.01-.42,3.01-.43,2.98-.59c15.93-2.97,31.06-9.13,44.98-17.07,6.96-4,13.55-8.61,19.8-13.6,6.24-5.01,12.15-10.44,17.53-16.35,5.38-5.92,10.29-12.26,14.58-19.01,3.2-5.03,6.02-10.32,8.3-15.84,3,.66,5.94-.39,6.98-2.67,1.21-2.65-.62-5.96-4.07-7.39Z"/></g></g><g><g><path class="cls-7" d="m489.55,1501.98l46.51-2.12,1.18,25.84-47.68-23.72Zm64.3,388.17l107.5,53.47,122.32-5.58-17.79-390.27,27.96-1.27-2.66-58.25-74.56,3.4,15.14,332.02-55.59,60.9-122.32,5.58Zm154.55-579.07l46.6-2.12-.05-1.16c-.9-19.8,5.24-38.76,16.36-50.94,2.22-2.44,5.56-6.09,8.95-8.58-.9-19.8-8.69-36.96-20.92-49.25-11.02-11.17-27.64-17.42-48.61-16.46l-6.99.32c-1.01,3.55-.85,7.04-.69,10.54l5.36,117.66Zm100.58,567.44l107.5,53.47,128.15-5.84-27.78-609.29c-2.71-59.34-21.45-110.24-55.08-146.57,1.61,10.41,2.67,21.16,3.17,32.19l27.78,609.29-55.59,60.9-128.15,5.84Z"/><path class="cls-7" d="m1592.27,1084l37.18,815.49-92.83-39.99c-32.85,30.19-78.64,53.64-139.3,56.41-39.14,1.78-73.66-4.54-102.9-17.88l-111.98-55.59c30.19,14.77,66.23,21.87,107.38,20,60.66-2.77,106.45-26.22,139.3-56.41l92.83,39.99,55.59-60.9-33.05-724.88,47.78,23.76Zm-307.56,14.02l26.54,582.24c-28.82-10.87-48.5-39.63-50.46-82.66l-23.86-523.33,47.78,23.76Z"/><path class="cls-7" d="m1787.82,1839.72c54.75-2.5,110.83-27.23,150.8-72.25l55.59-60.91c41.09-46.23,68.4-112.85,64.74-193.24-.52-11.46-1.75-22.4-3.56-32.85,29.7,38.89,52.65,85.35,55.47,147.23,3.66,80.38-23.65,147-64.74,193.24-39.97,45.02-96.05,69.75-150.81,72.25-51.26,2.34-82.45-16.09-89.76-22.76l-75.44-37.51c14.73,4.55,34.09,7.88,57.7,6.8Zm63.45-682.32c-.42-9.32.37-17.53,1.21-24.57,8.1-1.54,16.2-3.07,25.52-3.5,25.63-1.17,50.31,2.38,67.04,10.95l55.59-60.9-.73-28.07,49.61,24.67,3.03,117.77c-16.73-8.58-41.41-12.12-67.04-10.95-27.96,1.27-49.83,8.11-63.12,23.89-11.3,13.41-18.19,30.86-19.23,52.95-28.57-31.01-50.09-62.62-51.89-102.23h0Z"/><path class="cls-7" d="m2220.77,1119.55l2.66,58.25-15.15.69-107.5-53.47,119.99-5.47Zm159.75,687.32l55.59-60.9-28.94-634.92,61.74-2.81,55.59-60.91-1.45-31.71,47.78,23.76,5.58,122.32-119.99,5.47,31.6,693.17-128.15,5.84-107.5-53.47,128.15-5.84Z"/><path class="cls-7" d="m2777.77,1788.77l55.59-60.9-33.04-724.88,47.78,23.76,37.18,815.49-128.15,5.84-107.5-53.47,128.15-5.84Z"/><path class="cls-7" d="m3095.8,1774.27l55.59-60.91-28.47-624.43c-.32-6.99.58-12.87,1.48-18.75,7.74-3.01,20.41-4.43,29.55-4.85,42.86-1.95,79.39,23.55,89.21,53.8-17.56,5.67-34.74,15.57-47.47,29.52-13.34,14.62-21.87,32.52-20.86,54.65l28.47,624.43-128.15,5.84-107.5-53.47,128.15-5.84Zm308.72-14.07l55.59-60.9-28.73-630.26c-.48-10.61-1.39-20.73-2.69-30.36,31.07,29.01,51.5,76.78,54.6,144.73l28.73,630.26-128.15,5.84-107.51-53.47,128.15-5.84Z"/></g><g><path class="cls-6" d="m516.17,1319.84l28.88,121.26,46.6-2.12,17.79,390.27,122.32-5.58-55.59,60.9-122.32,5.58-17.79-390.27-46.6,2.12-28.88-121.26,55.59-60.9Zm9.95-37.81c-3.19-69.9,14.02-127.89,49.6-166.87l55.59-60.9c-35.58,38.98-52.78,96.97-49.6,166.87l4.35,95.53-58.25,2.66-1.7-37.28Zm184.59-99.47c20.97-.96,37.6,5.29,48.61,16.46,12.23,12.28,20.02,29.44,20.92,49.25l2.71,59.41,58.25-2.66-5.36-117.66c-1.81-39.61-27.6-67.62-69.54-65.71-38.99,1.78-60.61,28.56-63.12,61.25l7.53-.34Zm3.26,250.84l132.81-6.05,17.79,390.27,128.15-5.84-55.59,60.9-128.15,5.84-17.79-390.27-74.56,3.4-2.66-58.25Z"/><path class="cls-6" d="m1577.54,1785.11l-55.59,60.9-92.83-39.99c-32.85,30.19-78.64,53.64-139.3,56.41-128.46,5.86-207.18-75.78-213.07-205.09l-27.67-606.96,55.59-60.9,27.67,606.96c5.9,129.31,84.61,210.95,213.07,205.09,60.66-2.76,106.45-26.22,139.3-56.41l92.83,39.99Zm-200.08-107.81c4.79-13.72,7.07-28.78,6.35-44.46l-27.19-596.47,55.59-60.9,27.19,596.47c2.15,47.17-22.76,88.69-61.95,105.37Z"/><path class="cls-6" d="m1876.96,1592.85c-6.96-152.61-202.15-183.41-210.54-367.47-3.29-72.23,19.05-119.94,49.01-154l55.59-60.9c-29.97,34.05-52.31,81.77-49.02,154,8.39,184.07,203.58,214.86,210.54,367.48,2.36,51.82-20.24,90.66-59.66,107.6,3.46-14.74,4.82-30.25,4.07-46.7Zm-33.55,185.98c52.94-2.41,107.11-25.62,146.77-67.83l-51.56,56.48c-39.97,45.02-96.05,69.75-150.8,72.25-51.26,2.34-82.45-16.09-89.76-22.76l-3.41-125.92,55.59-60.91,3.41,125.93c7.31,6.67,38.5,25.09,89.76,22.76Zm34.6-649.49c-8.53.39-16.04,1.71-25.7,3.66,5.45-37.69,29.94-62.22,81.3-64.56,25.63-1.17,50.31,2.38,67.04,10.95l-55.59,60.9c-16.73-8.58-41.41-12.12-67.04-10.95Z"/><path class="cls-6" d="m2095.2,1002.7l55.59-60.9,5.58,122.32,119.99-5.47,31.6,693.17,128.15-5.84-55.59,60.9-128.15,5.84-31.6-693.17-119.99,5.47-5.58-122.32Zm309.31,50.11l119.99-5.47-55.59,60.91-61.74,2.81-2.66-58.25Z"/><path class="cls-6" d="m2612.45,979.12l55.59-60.9,37.18,815.49,128.15-5.84-55.59,60.9-128.15,5.84-37.18-815.49Z"/><path class="cls-6" d="m3023.25,1719.21l128.15-5.84-55.59,60.91-128.15,5.84-37.18-815.49,55.59-60.9,37.18,815.49Zm308.72-14.07l128.15-5.84-55.59,60.9-128.15,5.84-28.52-625.6c-1.96-43-43.71-77.39-93.99-75.1-9.81.45-19.8,1.59-29.76,4.61,8.08-39.8,39.46-63.43,85.35-65.52,50.28-2.29,91.76,26.24,93.99,75.1l28.52,625.6Z"/></g><g><path class="cls-4" d="m489.45,1502.01l55.59-60.91,46.6-2.12-55.59,60.91-46.6,2.12Zm242.31,321.67l-55.59,60.9-122.32,5.58,55.59-60.9,122.32-5.58Zm-21.06-641.11c20.97-.96,37.6,5.29,48.61,16.46l55.88-60.96c-11.87-11.16-28.47-17.33-48.9-16.4-38.99,1.78-60.61,28.56-63.12,61.25l7.53-.34Zm5.92,309.09l-2.66-58.25,132.81-6.05-55.59,60.91-74.56,3.4Zm276.09,320.12l-55.59,60.9-128.15,5.84,55.59-60.9,128.15-5.84Z"/><path class="cls-4" d="m1577.54,1785.11l-55.59,60.9-92.83-39.99c-32.85,30.19-78.64,53.64-139.3,56.41-58.49,2.67-106.67-12.8-142.36-42.65l54.25-62.05c35.82,30.59,84.48,46.49,143.71,43.79,60.66-2.76,106.45-26.22,139.3-56.41l92.83,39.99Z"/><path class="cls-4" d="m1843.41,1778.83c52.94-2.41,107.11-25.62,146.77-67.83l-51.56,56.48c-39.97,45.02-96.05,69.75-150.8,72.25-51.26,2.34-82.45-16.09-89.76-22.76l55.59-60.9c7.31,6.67,38.5,25.09,89.76,22.76Zm34.6-649.49c-8.53.39-16.04,1.71-25.7,3.66,5.45-37.69,29.94-62.22,81.3-64.56,25.63-1.17,50.31,2.38,67.04,10.95l-55.59,60.9c-16.73-8.58-41.41-12.12-67.04-10.95Z"/><path class="cls-4" d="m2100.78,1125.02l55.59-60.91,119.99-5.47-55.59,60.91-119.99,5.47Zm335.33,620.95l-55.59,60.9-128.15,5.84,55.59-60.9,128.15-5.84Zm-31.6-693.17l119.99-5.47-55.59,60.91-61.74,2.81-2.66-58.25Z"/><path class="cls-4" d="m2705.22,1733.71l128.15-5.84-55.59,60.9-128.15,5.84,55.59-60.9Z"/><path class="cls-4" d="m3151.4,1713.37l-55.59,60.91-128.15,5.84,55.59-60.9,128.15-5.84Zm2.47-648.02c-9.81.45-19.8,1.59-29.76,4.61,8.08-39.8,39.46-63.43,85.35-65.52,23.53-1.07,45.14,4.61,61.7,15.97l-56.84,62c-16.41-11.53-37.55-18.11-60.46-17.07Zm306.25,633.95l-55.59,60.9-128.15,5.84,55.59-60.9,128.15-5.84Z"/></g><g><path class="cls-3" d="m591.65,1438.98l-46.6,2.12-28.88-121.26,69.9-3.19-4.35-95.53c-3.19-69.9,14.02-127.89,49.6-166.87,30.02-32.89,73.44-53.55,129.41-54.93,127.04-3.46,198.7,82.01,204.22,203.16l27.78,609.29-128.15,5.84-17.79-390.27-132.81,6.05,17.79,390.27-122.32,5.58-17.79-390.27Zm249.56-133.95l-5.36-117.66c-1.81-39.61-27.6-67.62-69.54-65.71-43.1,1.96-64.97,34.48-63.27,71.76l5.36,117.66,132.81-6.05Z"/><path class="cls-3" d="m1577.54,1785.11l-92.83-39.99c-32.85,30.19-78.64,53.64-139.3,56.41-128.46,5.86-207.18-75.78-213.07-205.09l-27.67-606.96,128.15-5.84,27.99,613.95c2.71,59.41,39.2,91.6,86.86,87.1,55.81-4.88,94.41-54.5,91.75-112.75l-27.19-596.47,128.15-5.84,37.18,815.49Z"/><path class="cls-3" d="m1753.65,1756.07l-3.41-125.93c10.91,8.84,42.9,19.06,75.57,18.74,67.68-.75,109.93-47.04,106.74-116.94-6.96-152.61-202.15-183.41-210.54-367.48-3.29-72.23,19.05-119.94,49.02-154,41.09-46.23,99.92-61.76,141.86-63.67,37.28-1.7,72.65,6.03,84.73,14.82l3.03,117.77c-16.74-8.58-41.41-12.12-67.04-10.95-61.74,2.81-84.67,37.71-82.33,88.97,5.58,122.32,199.13,168.37,207.68,355.93,3.66,80.38-23.65,147-64.74,193.24-39.98,45.02-96.05,69.75-150.8,72.25-51.26,2.34-82.45-16.09-89.76-22.76Z"/><path class="cls-3" d="m2524.51,1047.34l-119.99,5.47,31.6,693.17-128.15,5.84-31.6-693.17-119.99,5.47-5.58-122.32,368.13-16.78,5.58,122.32Z"/><path class="cls-3" d="m2668.04,918.22l128.15-5.84,37.18,815.49-128.15,5.84-37.18-815.49Z"/><path class="cls-3" d="m3216.46,887.38c118.85-5.42,209.71,67.49,214.91,181.66l28.73,630.26-128.15,5.84-28.52-625.6c-1.96-43-43.71-77.39-93.99-75.1-49.41,2.25-88.59,39.06-86.31,89.16l28.25,619.77-128.15,5.84-37.18-815.49,95.27,33.17c32.19-27.71,76.69-46.84,135.13-49.51h-.01Z"/></g><g><path class="cls-5" d="m668.1,1771.7c-4.11.19-7.16-3.33-7.31-6.67l-17.48-383.49-53.07,2.42c-4.12.19-7.16-3.32-7.31-6.67-.19-4.11,3.32-7.16,6.67-7.31l53.07-2.42-7.4-162.28c-4.02-88.22,46.22-147.09,130.73-150.94,66.15-3.02,136.73,38.6,141.33,139.45l25.48,558.85c.19,4.11-3.33,7.16-6.67,7.31-4.11.19-7.16-3.33-7.31-6.67l-17.48-383.49-244.06,11.13,17.48,383.49c.19,4.11-3.33,7.16-6.67,7.31Zm-11.45-404.78l244.06-11.13-7.36-161.37c-3.7-81.2-53.71-129.43-126.72-126.1-76.35,3.48-121.12,54.61-117.39,136.32l7.4,162.28Z"/><path class="cls-5" d="m1346.42,1745.45c-90,4.1-151.75-43.2-157.53-170l-24.49-537.27c-.19-4.11,3.33-7.15,6.67-7.31,4.12-.19,7.16,3.33,7.31,6.67l24.49,537.27c5.48,120.29,61.92,160.35,142.91,156.65,70.6-3.22,155.82-62.53,147.82-238.17l-21.39-469.15c-.19-4.11,3.31-7.15,6.67-7.31,4.11-.19,7.16,3.33,7.31,6.67l31.19,684.17c.19,4.11-3.33,7.16-6.67,7.31-4.12.19-7.16-3.33-7.31-6.67l-5.32-116.81c-23.91,115.61-89.33,151.1-151.66,153.94Z"/><path class="cls-5" d="m1813.32,1718.28c-3.4-.22-6.36-3.25-6.51-6.66-.19-4.23,3.54-7.18,7.1-7.3,101.79,6.94,179.24-71.46,174.39-178-4.59-100.6-57.92-149.74-110.68-198.33-47.82-44.06-95.54-88.02-99.19-168.05-4.59-100.69,61.92-166.59,164.43-160.95,3.22.17,6.41,2.67,6.6,6.67.19,4.23-3.51,7.18-7.06,7.3-95.1-5.21-154.23,53.41-149.99,146.34,3.39,74.27,46.86,114.31,94.69,158.37,52.74,48.6,110.32,101.64,115.17,207.99,5.18,113.55-78.92,200.12-188.96,192.6h0Z"/><path class="cls-5" d="m2369.24,1693.35c-4.11.19-7.16-3.32-7.31-6.67l-31.3-686.53-118.11,5.38c-4.11.19-7.16-3.32-7.31-6.67-.19-4.11,3.33-7.16,6.67-7.31l249.79-11.39c4.12-.18,7.17,3.33,7.32,6.67.19,4.11-3.33,7.16-6.67,7.31l-117.71,5.36,31.3,686.53c.19,4.12-3.32,7.16-6.67,7.31Z"/><path class="cls-5" d="m2767.23,1676.01c-4.12.19-7.16-3.33-7.31-6.67l-31.7-695.49c-.19-4.11,3.32-7.15,6.67-7.31,4.11-.19,7.16,3.33,7.31,6.67l31.71,695.48c.19,4.11-3.33,7.16-6.67,7.31Z"/><path class="cls-5" d="m3085.14,1661.52c-4.11.19-7.16-3.33-7.31-6.67l-31.19-684.16c-.46-9.98,13.59-9.11,13.98-.64l3.45,75.67c23.03-70.77,81.01-104.83,146.56-107.81,102.4-4.67,161.04,63.36,164.43,137.87l25.73,564.35c.19,4.11-3.33,7.16-6.67,7.31-4.12.19-7.16-3.33-7.31-6.67l-25.7-563.85c-3.64-79.79-66.75-128.82-149.84-125.03-84.71,3.86-137.19,60.35-145.64,129.11l26.19,573.22c.15,3.34-2.55,7.12-6.67,7.31Z"/></g></g><path class="cls-2" d="m2103.65,440.28c-.44-34-39.02-61.47-86.58-61.47-18.23,0-35.12,4.06-49.07,10.96-14.23-19.97-43.06-33.69-76.44-33.88-18.76-29.34-60.01-49.76-108.01-49.76-59.7,0-108.98,31.57-117.43,72.66-2.55-.16-5.11-.28-7.72-.28-47.82,0-86.59,27.62-87.01,61.8h532.35s-.05-.02-.08-.03Z"/><g><g><path class="cls-6" d="m995.37,2084.72c2.31,51.41,4.61,102.78,6.92,154.12,151.91,42.4,303.83-70.31,455.74-23.13-11.77-29-23.54-57.04-35.31-84.27,9.48-23.53,18.95-46.54,28.43-68.94-151.93-42.73-303.86,69.7-455.78,22.22Z"/><g><path class="cls-7" d="m1050.67,2130.78c-.05-1.01.59-1.63,1.6-1.55,13.04,1.04,26.07,1.2,39.11.67,1.01-.04,1.7.49,1.75,1.6.16,3.54.32,7.08.48,10.61.05,1.01-.59,1.71-1.6,1.75-3.43.15-6.85.24-10.28.29-1.01.01-1.65.69-1.6,1.7,1.01,22.2,2.02,44.39,3.03,66.58.05,1.01-.48,1.69-1.6,1.7-3.99.05-7.97.04-11.96-.05-1.01-.02-1.71-.71-1.75-1.72-1.01-22.23-2.02-44.47-3.03-66.72-.05-1.01-.75-1.71-1.75-1.75-3.39-.15-6.78-.35-10.17-.62-1.01-.08-1.7-.7-1.75-1.82-.16-3.56-.32-7.12-.48-10.68Z"/><path class="cls-7" d="m1113.02,2130.1c-.05-1,.48-1.72,1.6-1.83,11.51-1.13,23.02-2.71,34.52-4.59,1.01-.16,1.71.39,1.75,1.39.16,3.41.31,6.81.47,10.22.05,1-.59,1.78-1.6,1.95-6.41,1.05-12.81,2.01-19.22,2.86-1.01.13-1.64.89-1.6,1.89.27,5.9.54,11.8.81,17.7.05,1,.75,1.58,1.75,1.45,6.41-.85,12.81-1.82,19.22-2.89,1.01-.17,1.71.39,1.75,1.39.16,3.41.31,6.81.47,10.22.05,1-.59,1.78-1.6,1.95-6.41,1.07-12.81,2.05-19.22,2.91-1.01.13-1.65.89-1.6,1.89.28,6.12.56,12.24.84,18.36.05,1,.75,1.58,1.75,1.44,6.41-.87,12.81-1.86,19.22-2.94,1.01-.17,1.71.38,1.75,1.38.16,3.41.31,6.81.47,10.22.05,1-.59,1.78-1.6,1.95-11.51,1.95-23.02,3.61-34.52,4.83-1.01.11-1.71-.49-1.75-1.5-1.22-26.75-2.44-53.5-3.67-80.25Z"/><path class="cls-7" d="m1173.44,2201.58c4.99-14.19,9.97-28.41,14.96-42.67.2-.49.18-.93-.06-1.33-6.19-11.92-12.38-23.88-18.56-35.91-.49-.91.04-1.69,1.38-1.94,3.72-.72,7.45-1.46,11.17-2.22,1.45-.3,2.49.16,2.98,1.07,3.65,7.35,7.29,14.67,10.94,21.99.25.5,1.03.34,1.23-.26,2.91-8.72,5.82-17.46,8.73-26.19.29-1.07,1.38-1.98,2.83-2.3,3.72-.82,7.45-1.65,11.17-2.48,1.23-.27,1.93.24,1.53,1.34-4.99,14.33-9.97,28.65-14.96,42.95-.2.49-.29.96-.05,1.35,6.22,11.84,12.45,23.66,18.67,35.48.49.9-.15,1.71-1.38,1.99-3.72.83-7.45,1.66-11.17,2.49-1.45.32-2.49-.12-2.98-1.02-3.65-7.29-7.29-14.59-10.94-21.91-.25-.51-1.03-.34-1.23.27-2.91,8.72-5.82,17.44-8.73,26.15-.29,1.07-1.38,1.97-2.83,2.27-3.72.77-7.45,1.53-11.17,2.26-1.34.26-1.93-.29-1.53-1.38Z"/><path class="cls-7" d="m1241.59,2186.63c5.12-27.82,10.23-55.62,15.35-83.41.26-1.73.69-2.16,2.03-2.45,3.58-.76,7.15-1.51,10.73-2.25,1.34-.28,1.8-.03,2.21,1.56,7.55,25.15,15.09,50.38,22.64,75.72.4,1.27-.36,1.97-1.81,2.23-3.46.62-6.93,1.27-10.39,1.94-1.34.26-1.91.03-2.31-1.23-.67-2.26-1.34-4.52-2-6.77-.25-.62-.52-1.58-2.2-1.24-5.4,1.08-10.8,2.2-16.2,3.35-1.68.36-1.96,1.43-2.05,2.12-.49,2.49-.97,4.99-1.46,7.48-.27,1.4-.82,1.86-2.16,2.14-3.43.74-6.85,1.49-10.28,2.25-1.45.32-2.37-.04-2.1-1.44Zm31.97-28.65c.89-.18,1.21-.69.95-1.42-2.76-9.3-5.51-18.59-8.27-27.87-.14-.64-1.04-.46-1.12.23-1.86,10.24-3.72,20.49-5.58,30.74-.08.8.17,1.2,1.06,1.01,4.32-.92,8.64-1.81,12.96-2.69Z"/><path class="cls-7" d="m1310.86,2150.83c-.05-1,.59-1.77,1.6-1.92,3.99-.6,7.97-1.16,11.96-1.67,1.01-.13,1.71.46,1.75,1.46.03.67.06,1.34.09,2,.23,5.02,4.09,8.32,10.35,7.67,6.03-.62,9.78-4.48,9.57-9.17-.03-.56-.05-1.11-.08-1.67-.25-5.46-6.96-7.64-15.91-11.74-9.29-4.32-20.38-8.09-20.94-20.31-.06-1.41-.13-2.82-.19-4.22-.56-12.2,9.45-22.31,24.31-23.97,14.75-1.63,25.52,6.35,26.08,18.62.06,1.41.13,2.83.19,4.24.05,1.01-.48,1.7-1.49,1.75-4.02.21-8.04.48-12.07.8-1.01.08-1.59-.54-1.64-1.54-.03-.59-.05-1.19-.08-1.78-.24-5.24-4.32-8.72-10.36-8.06-6.14.67-9.78,4.75-9.57,9.31.03.59.05,1.19.08,1.78.25,5.47,6.05,6.9,15.68,11.45,8.95,4.25,20.5,9.5,21.06,21.82.06,1.42.13,2.83.19,4.25.56,12.32-9.45,20.98-24.2,22.48-14.86,1.53-25.63-5.1-26.19-17.35-.06-1.41-.13-2.82-.19-4.22Z"/></g></g><path class="cls-2" d="m1022.53,2684.38c-2.02,0-3.7-1.59-3.8-3.63l-28.01-614.37c-.1-2.1,1.53-3.88,3.63-3.97,2.1-.08,3.88,1.53,3.97,3.63l28.01,614.37c.1,2.1-1.53,3.88-3.63,3.97-.06,0-.12,0-.18,0Z"/></g><g><polygon class="cls-7" points="1683.89 2274.26 1687.93 2274.96 1691.73 2273.94 1694.73 2272.29 1696.75 2269.8 1698.1 2265.61 1697.95 2261.25 1696.24 2259.14 1694.07 2257.27 1689.8 2256.79 1685.8 2257.61 1683.4 2259.67 1681.63 2261.93 1680.3 2265.91 1680.21 2270.49 1681.29 2272.41 1683.89 2274.26"/><path class="cls-7" d="m1873.33,2316.79l-3.49,2.11-2.55,3.38-1.56,2.25-2.04,2.7-3.19,5.15-1.42,2.89-4.99,7.62-1.99,2.26-1.83,2.69-1.75,2.03-4.42,4.54-1.82.73-.91-1.49.13-3.06,1.72-5.52.06-2.4.54-2.86.98-2.88.28-2.41.57-3.08,1.01-5.06,1.16-4.41.94-4.4.76-2.87.28-2.41.54-2.86.79-3.08.54-2.86.76-2.87.08-2.62,1-3.09.63-5.48,1.2-2.88.21-3.72-1.39-2.99-2.7-.98-2.61.11-2.64.33-2.72,2.95-1.08,3.75-.57,3.08-.95,2.66-.33,2.85-.98,2.88-.87,5.71-2.48,8.39-.54,2.86-2.95,6.88-1.08,3.75-1.85,2.91-1.2,2.88-1.61,2.68-1.58,2.46-1.39,2.67-2.21,2.27-1.8,2.47-2.62,2.07-2.38,1.84-2.16,1.83-2.38,1.84-2.74,1.2-2.9.78-4.38.4-3.89-.06-2.1-.57-1.71-2.11-.59-2.37-.79-2.58-.15-4.35,1.32-9.65,1.47-5.29.54-2.86,2.7-8.4.11-2.84.74-2.65,1.52-3.77,1.13-4.19.49-2.42.3-2.63,1.13-4.19.31-4.59-1.22-2.57-1.27-2.13-1.73-1.89-2.03-1.22-2.95-.75-3.02-.09-2.86.33-2.88.56-3.01,1.65-2.77,3.39-1.93,3.57,1.44,2.56,3.21.3,3.83-1.25,2.49.99.25,3.48-.48,4.16-.71,2.43-.54,2.86-.74,2.65-1.35,4.2-1.57,4.21-.57,3.08-.76,2.87-1.01,2.44-1.72,2.47-1.41,2.89-1.83,2.69-1.61,2.68-1.8,2.47-2.23,2.49-1.58,2.46-1.99,2.26-1.97,2.04-1.8,2.47-2.62,2.07-4.71,3.25-2.3,1.19-2.71.98-4.43.84-3.75.59-2.7-.98-2.46-1.21-1.73-1.89-1.49-2.12-1-2.58-.11-2.83-.54-2.81.26-4.15.07-4.36.54-2.86.11-2.84.95-2.66.54-2.86.81-3.3-.16-2.39.95-2.66.79-3.08.08-2.62.98-2.87,1.01-3.09.33-2.85.52-2.64.98-2.88.79-3.08,1.17-2.67.74-2.65.79-3.08.54-2.86,1.85-2.91,3.44-1.67,2.83-.12,3.24.08,2.61-.11,2.95.75,4.35-.18,3.37-1.01,1.58-2.46-.11-2.83-2.55-2.29-3.93-1.58-8.58-.73-3.1.56-2.43-1.43-1-2.57,1.77-5.96.33-2.85.76-2.87.3-2.63.52-2.64.96-2.65.33-2.85.54-2.86.48-4.16-1.51-3.86-2.49-.99-3.29.35-2.69.77-2.14,3.58-1.59,4.43-1.91,10.98-1.28,5.5-2.5,8.61-1.42,2.89-4.89,1.07-3.02-.09-3.75.59-1.61,2.68-1,3.09,2.96,2.5,4.37,1.56,2.63,1.64,1.15,3.22-.74,2.65-1.93,5.53-1.63,8.57-2.13,5.32-.76,2.87-.3,2.63-1.22,3.1-.08,2.62-1.17,2.66-.33,2.85-.57,3.08-.16,1.43-.23.11-6.01,8.97-2.75,5.13-1.83,2.69-3.6,4.95-2.19,2.05-2.02,2.48-4.37,4.1-2.11,1.4-5.06,2.61-4.35.18-3.16-.74-2.19-1.65-.79-2.58-.95-3.01.11-2.84-.35-2.6.35-3.07.22-5.68.76-2.87.11-2.84,1.72-5.52.14-3.06.95-2.66-.08-3.05,1.96-5.75.33-2.85,2.29-8.6,1.2-2.88.54-2.86.29-4.37-.9-3.45-2.68-1.2-2.56-.33-2.95,1.21-2.75,3.17-2.98,7.1-1.31,5.72-2.01,6.19-.9,5.92-.38,3.29-.52,2.64-1.22,3.1-.33,2.85-.25,1.15-.33.18-3.68,5.6-1.63,2.9-2.21,2.27-1.8,2.47-2.04,2.7-1.8,2.47-1.97,2.04-2.62,2.07-1.75,2.03-2.86,2.3-3.73,2.33-2.13,1.61-3.95,2.34-2.71.98-3.66,1.68-14.86,3.01-6.5.05-3-.31-2.54-.55-3.16-.74-2.08-.79-2.24-1.21-3.45-2.04-3.4-2.48-3.71-3.55-2.49-4.69-.54-2.81-1.06-2.14-.74-3.02-1-2.58.11-2.84-.79-2.58.08-2.62-.08-3.05.11-2.84-.11-2.83.52-2.64.33-2.85.54-2.86.33-2.85.96-4.62.7-4.17,1.17-2.66.96-2.66.55-2.86.79-3.09,1.39-2.67,3.13-8.42,1.61-2.68,1.58-2.46.96-2.66,1.61-2.68,1.58-2.46,1.61-2.68,1.39-2.67,2.21-2.27,5.4-7.42,6.15-6.36,2.65-2.29,5.94-4.61,9.21-4.74,2.47-.76,3.15-1,2.42-.32,4.13-.17,4.3.26,2.46,1.21,1.37,1.25,1.46,2.34,1.03,2.36.33,2.82-.33,2.85.16,2.39-1.2,2.88-.55,2.86-.95,2.66-1.82,2.69-1.15,2.45-1.35,4.2-.45,3.94,2.65,1.42,2.51.77,4.14-2.13,2.77-3.39,2.97-5.14,1.8-2.47,1.96-5.75.76-2.87.79-3.08.76-2.87.08-2.62.52-2.64-.87-5.63-.84-2.15-1.66-2.55-2.81-3.81-2.19-1.65-2.65-1.42-2.03-1.22-2.75-.54-2.54-.55-4.76-.02-3.7.15-3.32.57-2.69.77-3.07.34-2.52,1.19-5.42,1.97-2.76,1.42-2.55,1.41-2.95,1.21-5.19,3.7-2.38,1.84-4.37,4.1-2.4,2.06-6.36,6.37-1.82,2.69-4.01,4.75-1.63,2.9-1.8,2.47-1.37,2.46-2.04,2.7-1.15,2.45-1.85,2.91-1.17,2.66-1.58,2.46-1.01,3.09-1.39,2.67-.74,2.65-2.8,5.57-1.22,3.1-.3,2.63-1.17,2.66-.54,2.86-1.92,7.27-1.51,7.48-.57,3.08-.28,2.41-.13,3.06-.33,2.85.33,2.82-.54,2.86.3,3.04-.08,2.62.79,2.58.33,2.82.13,2.61.81,2.36,1.52,5.61,1.27,2.13.76,2.8,1.05,2.14,1.47,2.34,1.51,1.9,3.88,3.98,3.54,3.12,2.22,1.43,2.44,1.42,7.24,2.97,3.19.52,2.54.55,7.93.76,3.05-.13,14.52-1.91,2.47-.76,2.93-.99,2.69-.77,2.5-.97,10.81-5.46,2.57-1.63,2.13-1.61,4.37-4.11,2.62-2.07,1.94-1.82,2.02-2.48,2.45-2.5,1.56-2.25,1.35-1.79.17,1.72.03,5.45.54,2.81.38,2.38.79,2.58,1.73,1.89.84,2.15,1.98,1.66,1.32,1.69,4.32,2,6.26.18,4.6-.41,5.57-1.32,2.33-1.41,2.52-1.19,2.6-1.85,2.81-1.86,1.97-2.04,1.56-2.25,2.4-2.06,2.02-2.48,1.99-2.26,1.78-2.25,1.41-2.89,1.28-1.63.32,4.62.79,2.58.11,2.83,3.74,7.04,1.95,1.88,2.41,1.64,2.22,1.43,2.32.56,2.29.78,4.47.69,5.66-.23,3.99-.82,2.93-.99,2.47-.75,2.96-1.21,6.14-4.4,7.74-7.08,3.58-4.73,2.19-2.25.42,2.15-.13,3.06.84,2.15,1.47,2.34,1.03,2.36,1.3,1.91,1.98,1.66,1.54,1.68,5.02,1.54,3.43.29,7.89-.76,2.74-1.2,3.56-.8,2.74-1.2,5.14-3.26,2.43-2.28,2.62-2.07,1.77-2.25,2.4-2.06,1.39-2.68,1.99-2.26,1.87-1.17.5,1.29-.76,2.87-.13,3.06-.28,2.41-.76,2.87-.57,3.08-.93,2.44-2.17,3.8-2.48,2.72-3.25,1.88-5.12,3.05-3.17,1.22-2.13,1.62-3.03,1.87-2.18,2.05-2.57,1.63-2.81,1.86-2.35,1.62-1.8,2.47-2.84,2.08-1.8,2.47-2.39,3.8-2.71,6.65-.3,8.3.79,2.58,1.03,2.36,4.39,3.31,2.05,1.01,6.62.82,5.27-.65,4.72-1.5,2.98-1.43,2.3-1.19,1.94-1.82,2.57-1.63,4.23-4.75,1.36-2.46,2.02-2.48,1.39-2.67,1.61-2.68.93-2.44,1.63-2.9.74-2.65.96-2.66,1.39-2.67.79-3.08.33-2.85.54-2.86,2.39-3.8,2.53-3.16,2.81-1.86,1.99-2.26,2.16-1.83,4.01-4.75,2.19-2.05,3.82-4.95,2.65-2.29,1.15-2.44,2.24-2.49,3.57-4.73,1.2-2.88,3.19-5.15,2.02-2.48,1.42-2.89,1.49-3.55.24-3.93-1.73-1.89-2.73-.76Zm-50.86,67.51l-.79,3.08-1.96,5.75-4.82,8.05-4.42,4.54-1.94,1.83-2.52,1.19-4.21.83-3.52-1.38-.84-2.14.28-2.41.74-2.65,2.04-2.7,1.15-2.45,7.59-5.76,2.43-2.28,2.57-1.63,2.59-1.85,3-1.65,2.66-.55-.03,2.18Z"/><path class="cls-7" d="m2075.67,2309.06l-2.54-.55-3.71,2.12-2.58,3.59-1.39,2.67-3.65,5.38-1.77,2.25-1.8,2.47-1.99,2.26-2.64,2.29-1.73,1.82-4.31,1.7-4.26,1.27-2.56-.33-2.54-.55-2.44-1.42-2.17-1.87-1.03-2.35-1.31-3.65-.58-4.34-1.03-2.36-1.73-1.89-2.27-1-2.91.78-2.95,1.21-1.78,2.25-1.2,2.88-.33,2.85,1.24,4.31,1.56,3.42,1.84,4.72,1.44,2.56,1.03,2.36.57,2.59,2.6,7.52.76,2.8.38,2.38,1.03,2.36.11,2.83.33,2.82.35,2.6.16,2.39.19,5.88.17,4.14-2.35,7.29-.98,2.88-1.63,2.9-2.04,2.7-2.18,2.05-3.58,1.02-3.65-.29-2.14-2.09-1.87-2.54-1.1-3.66-.53-6.74-.79-2.58-.33-8.49.08-2.62-.52-3.03.33-2.85-.13-2.61.57-3.08.08-2.62.22-5.68.33-2.85-.02-5.45.79-3.08.33-2.85.11-2.84.82-5.27.11-2.84.35-3.07.52-2.64.35-3.07.54-2.86.76-2.87.65-5.7.74-2.65.35-3.07.71-2.43.76-2.87.33-2.85,1.77-5.96.3-2.63.57-3.08.93-2.44,2.29-2.93,2.81-1.86,2.85-.34,3.17-1.22,3.15-1,2.71-.98,2.06-.96,8.61-5.15,2.38-1.84,2.19-2.05,3.42-3.41,2.77-3.39,1.99-2.26,2.07-2.92,1.78-2.25,1.63-2.9,1.39-2.68,1.17-2.66,1.2-2.88.98-2.88,1.2-2.88.54-2.86-.08-3.05.54-2.86-.08-3.05-.57-2.59-.11-2.83-.81-2.37-1.44-2.56-1.54-1.68-4.22-2.88-2.7-.98-8.46.13-2.91.77-2.71.98-1.87,1.17-2.98,1.43-2.79,1.64-1.77,2.25-2.21,2.27-1.72,1.82-2.02,2.48-3.41,5.16-1.58,2.46-1.82,2.69-1.73,3.78-2.19,4.02-.95,2.66-.93,2.44-1.61,2.68-1.91,5.31-1.2,2.88-.33,2.85-1.58,2.46-.74,2.65-2.26,2.71-3.46-.08-4.04-.71-3.29.36-2.24,2.49-.74,2.65,1.61,2.99,3.45,2.04,2.92.97,2.36,2.08.71,3.24-1.01,3.1-.79,3.09-.3,2.63-.96,2.66-.33,2.85-.74,2.65-.68,5.91-1.53,5.73-.3,2.63-.9,4.79-.08.05-3.26,3.84-1.17,2.66-1.39,2.67-2.02,2.48-3.16,4.93-2.21,2.27-1.83,2.69-2.38,1.84-2.6,1.85-3.68,1.9-4.62.63-1.59-1.24.54-2.86,1.36-2.46,1.63-2.9.76-2.87,3.81-8.66.54-2.86,1.15-4.41.94-4.4.57-3.08-.11-2.83.13-3.06.52-2.64-1.41-8.44-.76-2.8-1.25-2.35-1.27-2.13-1.71-2.11-2.17-1.87-2.24-1.22-4.71-2.42-5.78-.63-4.3-.26-5.93.68-4.43.84-2.71.98-2.91.77-2.96,1.21-4.9,3.04-2.84,2.08-4.37,4.1-1.58,2.46-2.02,2.48-2.23,2.49-1.17,2.67-2.24,2.49-1.2,2.88-1.66,3.12-.71,2.43-1.22,3.1-.74,2.65-.57,3.08-2.09,8.81-.76,2.87.33,2.82-.79,3.08.57,2.59.3,3.04-.11,2.84,1.2,2.78.59,2.37,1.46,2.34,1.22,2.56,1.71,2.11,2.22,1.43,1.71,2.11,2.46,1.21,5.38,2.18,2.59.11,3.87.28,4.6-.41,2.64-.33,2.47-.75,2.93-1,3.66-1.68,6.74-3.99,3.39-1.23,3.48-.14,3.19.52,2.34.34,8.3-.56,2.69-.76,2.33-1.4,2.98-1.43,2.35-1.62,2.4-2.06,2.16-1.83,2.96-3.18,2.55-3.38.63-.99-.23,1.19-.33,2.85.11,2.83-.68,5.91-.85,5.49-.11,2.84.35,2.6-.54,2.86-.33,8.52.52,3.03-.41,5.47.11,2.83.35,2.6.16,2.39-.13,3.06.35,2.6,1.29,3.87.85,3.89.38,2.38,2.74,4.46,3.25,3.79,2.24,1.21,1.81,1.23,2.54.55,3,.31,3.7-.15,4.48-1.28,2.71-.98,2.79-1.64,2.35-1.62,2.18-2.05,4.45-4.76,3.41-5.16,1.2-2.88,1.41-2.89,1.96-5.75.31-4.59.75-6.57-.52-3.03-.16-2.39.11-2.84-.57-2.59-1.33-5.4-.57-2.59-.16-2.39-.57-2.59.25-2.19,2.74-1.2,2.88-.56,4.91-1.29,4.09-1.69,2.35-1.62,8.33-8.41,1.78-2.25,2.02-2.48,1.39-2.67,2.04-2.7,1.12-2.23,3.8-6.7-.23-3.7-1.95-1.88Zm-49.58-53.11l1.63-2.9.57-3.08.98-2.87,1.83-2.69.98-2.87,1.66-3.12,1.76-4,2.19-4.01,1.63-2.9,2.26-2.71,1.61-2.68,2.7-2.73,1.77-2.25,2.6-1.85,3.73-.37,3.82.71,1.46,2.34-.08,2.62.11,2.83-.14,3.06-1.74,5.74-1.63,2.9-.98,2.87-1.61,2.68-1.63,2.9-2.39,3.81-3.23,3.62-2.62,2.07-1.97,2.04-2.38,1.84-2.18,2.05-2.98,1.43-2.96,1.21-2.25.75-2.49-.99-1.03-2.35,1.01-3.09Zm-59.81,53.06l-.91,4.18-1.84,6.62-1.2,2.88-1.17,2.67-2.89,2.52-3.52,2.33-2.21,2.27-1.58,2.46-2.5,6.64-2.12,3.36-3.93,2.12-4.5,1.5-8.03.11-2.68-1.2-2-1.44-1.71-2.11-1.08-1.92-1.42-2.78-.52-3.03-.43-5.65.76-2.87.08-2.62.94-4.4,2.57-7.3.54-2.86,2.78-5.35.71-2.43,3.65-5.38,1.56-2.24,4.59-4.12,2.57-1.63,2.79-1.64,3.63-1.46,5.49-.66,4.71.46,2.29.78,2.24,1.21,1.98,1.66,1.49,2.12.76,2.8.35,2.6-.03,5.89.3,3.04-.54,2.86Z"/><path class="cls-7" d="m2350.88,2296.8l-3.32,2.54-3.01,3.61-1.56,2.25-5.18,7.41-3.79,4.74-4.64,4.55-2.16,1.83-2.18,2.05-7.64,4.24-2.95,1.21-5.67,2.2-2.88.55-7.02.73-7.08-.58-5.24-1.53-1.57-1.46-2.36-2.08-1.92-2.1-1.05-2.14-.76-2.8-1.03-2.35-.76-2.8.35-3.07-.35-2.6.9-2.22,3.87.28,2.51.77,4.42,1.12,2.78.32,5.39.21,3.1-.56,2.64-.33,5.84-1.77,5.06-2.61,3.03-1.87,2.57-1.63,1.97-2.04,2.02-2.48,1.99-2.26,2.02-2.48.98-2.87,1.58-2.46,1.16-4.41.91-4.18-.28-3.26.08-2.62-.76-2.8-1-2.58-1.71-2.11-1.32-1.69-2.14-2.09-4.9-2.63-5.48-1.3-2.8-.1-11.83,1.14-3.85,1.47-7.1,3.35-4.97,3.69-2.21,2.27-2.38,1.84-2.02,2.48-1.56,2.25-3.84,5.17-1.82,2.69-.96,2.66-1.39,2.67-.95,2.66-1.22,3.1-.98,2.88-.57,3.08-.34,1.27-2.31,2.98-3.41,5.16-.93,2.44-2.02,2.48-3.65,5.38-2.21,2.27-2.24,2.49-2.04,2.7-6.51,5.72-2.74,1.2-3.78.81-3.38-.73-1.05-2.14-.74-3.02-.33-2.82.96-2.66.54-2.86.3-2.63,1.61-2.68.71-2.43,1.78-4.22,2.22-4.23.74-2.65,1.63-2.9,1-3.09,1.17-2.67.74-2.65.57-3.08.98-2.88.76-2.87,1.11-5.93.08-2.62-.11-2.83-1.16-4.97-1.27-2.13-1.25-2.35-1.35-1.47-1.81-1.23-2.73-.76-2.56-.33-2.78-.32-2.85.34-8.45,1.88-2.54,1.41-3.87,1.69-3.93,2.12-2.38,1.84-1.99,2.26-2.6,1.85-1.97,2.04-2.16,1.83-2.02,2.48-4.18,4.31-1.58,2.46-1.24,1.36-.7-1.5.57-3.08,1.28-5.5-.11-2.83.54-2.86.08-2.62,1.17-2.67.6-5.26,2.31-3.15,3.63-1.46,2.88-.55,2.64-.33,2.83-.12,3.12-.78,8.77-2.76,5.07-2.61,2.6-1.85,2.76-1.42,2.79-1.64,3.81-2.99,2.77-3.39,5.83-7.44,1.58-2.46,1.39-2.67.96-2.66.79-3.08.33-2.85.71-2.43-.33-2.82.08-2.62-1.79-5.16-1.3-1.91-1.71-2.11-1.57-1.46-5.14-2.4-1.86-.79-4.55-.03-4.57.19-2.64.33-2.69.76-4.75,1.72-3.22,1.66-2.57,1.63-2.13,1.61-4.37,4.11-2.65,2.29-1.78,2.25-6.55,9.86-1.58,2.46-1.42,2.89-.93,2.44-1.87,3.13-1.17,2.67-.54,2.86-1.58,2.46-2.04,2.7-4.02,1.04-4.07,1.48-1.77,2.25-1.01,3.09,2.04,2.97,3.74,1.37,1.27,2.13.5,3.25-.79,3.08-.08,2.62-.96,2.66-.35,3.07-.54,2.86-.3,2.63-.52,2.64-.98,2.88.08,3.05-.57,3.08-.54,2.86-.08,2.62-.57,3.08.11,2.83-.11,2.84-.52,2.64-.1,1.17-.26.16-2.34,3.37-1.42,2.89-1.83,2.69-1.61,2.68-1.8,2.47-2.23,2.49-1.58,2.46-1.99,2.26-1.97,2.04-1.8,2.47-2.62,2.07-4.71,3.25-2.3,1.19-2.71.98-4.43.84-3.75.59-2.7-.98-2.46-1.21-1.73-1.89-1.49-2.12-1-2.57-.11-2.83-.54-2.81.26-4.15.07-4.36.54-2.86.11-2.84.96-2.66.54-2.86.81-3.3-.16-2.39.95-2.66.79-3.08.08-2.62.98-2.87,1.01-3.09.33-2.85.52-2.64.98-2.88.79-3.08,1.17-2.67.74-2.65.79-3.08.54-2.86,1.85-2.91,3.44-1.67,2.83-.12,3.24.08,2.61-.11,2.95.75,4.35-.18,3.37-1.01,1.58-2.46-.11-2.83-2.55-2.29-3.93-1.58-8.58-.73-3.1.57-2.44-1.43-1-2.57,1.77-5.96.33-2.85.76-2.87.3-2.63.52-2.64.95-2.66.33-2.85.54-2.86.48-4.16-1.51-3.86-2.49-.99-3.29.35-2.69.77-2.14,3.58-1.59,4.43-1.91,10.98-1.28,5.5-2.5,8.61-1.41,2.89-4.89,1.07-3.02-.09-3.75.59-1.61,2.68-1,3.09,2.96,2.49,4.37,1.56,2.63,1.64,1.15,3.22-.74,2.65-1.93,5.53-1.63,8.57-2.13,5.32-.76,2.87-.3,2.63-1.22,3.1-.08,2.62-1.17,2.66-.33,2.85-.57,3.08-.3,2.63-.52,2.64-.3,2.63-.76,2.87.3,3.04-.74,8.32.41,5.87.79,2.58.11,2.83,3.74,7.04,1.95,1.88,2.41,1.65,2.22,1.43,2.32.56,2.29.78,4.47.69,5.66-.23,3.99-.82,2.93-.99,2.47-.76,2.96-1.21,6.14-4.4,7.75-7.08,3.58-4.73,2.21-2.27,3.2-4.77-.68,3.57-.35,3.07-.06,2.4.11,2.83-.65,5.69.15,4.36,1.82,2.98,3.19.52,2.47-.76,2.71-.98,2.22-4.23.31-4.59.74-2.65.95-8.32.27-6.12.11-2.84,1.28-5.5-.11-2.83,1.16-4.41,1.32-3.98,1.17-2.66,1.58-2.46,3.84-5.17,1.58-2.46,1.78-2.25,1.56-2.24,6.41-6.81,2.35-1.62,2.19-2.05,2.54-1.41,2.49-.98,2.33-1.4,4.24-1.05,4.35-.18,2.49.99,1.54,1.68.98,2.79-.52,2.64-.68,5.91-.74,2.65-.57,3.08-.96,2.66-1.42,2.89-1.32,3.98-3,5.36-2.79,7.31-.74,2.65-.98,2.88-.74,2.65-.76,2.87-.22,5.68-.33,2.85.89,5.41,1.25,2.35,2.3,4.48,1.76,1.67,2.68,1.2,2.34.34,2.51.77,4.38-.4,7.41-2.27,2.3-1.19,2.81-1.86,1.94-1.83,2.62-2.07,3.64-3.42,2.77-3.38,2.02-2.48,2.26-2.71,1.58-2.46,1.99-2.26,1.17-2.25.3,2.62.76,2.8.38,2.38,1,2.58,1.06,2.14,1.92,2.1,1.71,2.11,1.95,1.88,4,2.89,2.85,1.62,2.27,1,2.1.57,3.38.73,2.34.34,2.59.11,4.57-.19,9.84-.84,2.69-.76,2.9-.77,2.71-.99,3.37-1.01,7.18-4,7.59-5.77,2.4-2.06,1.97-2.04,1.99-2.26,2.43-2.28,2.02-2.48,1.37-2.46,1.8-2.47,2.45-2.5,1.61-2.68,1.17-2.67,1.37-2.45,1.57-4.21.16-3.28-1.95-1.88-2.51-.77Zm-69.35-5.41l.95-2.66,1.61-2.68,2.04-2.7,2.8-3.6,4.08-3.44,2.13-1.61,2.11-1.4,3.15-1,4.45-1.06,4.16-.39,3.19.52,1.81,1.23,1.98,1.66,1.25,2.35.76,2.8-1.83,8.36-3.62,5.16-2.38,1.84-2.62,2.07-4.31,1.7-4.02,1.04-2.42.32-4.11-.05-4.47-.69-2.75-.54-2.7-.98-1.63-2.77.4-3.5Zm-83.93-53.87l.98-2.88.76-2.87,1.39-2.67,1.61-2.68,1.2-2.88,3.04-3.83,2.19-4.02,6.75-5.95,2.76-1.42,2.71-.99,3.7-.15,4.06.49,1.98,1.66,1.93,2.1,1,2.57-.08,2.62-1.93,5.53-.95,2.66-1.63,2.9-8.33,8.41-2.84,2.08-2.33,1.41-2.96,1.21-5.18,1.74-5.81,1.55-2.64.33-2.46-1.21-.11-2.83,1.2-2.88Z"/><polygon class="cls-7" points="2506.99 2229.51 2508.82 2226.82 2510.21 2224.15 2511.76 2221.9 2515.77 2217.16 2517.6 2214.47 2519.81 2212.19 2526.03 2205.18 2528.22 2203.13 2530.02 2200.65 2532.42 2198.59 2534.8 2196.75 2538.17 2193.77 2541.19 2190.16 2541.9 2187.73 2540.89 2185.16 2539.57 2183.47 2537.54 2182.25 2534.06 2182.39 2530.16 2184.29 2524.41 2189.11 2522.06 2190.73 2520.25 2193.21 2517.85 2195.27 2515.89 2197.31 2513.63 2200.02 2511.66 2202.07 2510.1 2204.31 2508.06 2207.01 2505.85 2209.28 2504.24 2211.97 2502 2214.46 2496.63 2221.66 2495.05 2224.12 2493.66 2226.79 2490.44 2232.16 2488.59 2235.07 2487.23 2237.53 2485.62 2240.21 2482.84 2245.56 2480.8 2248.26 2479.65 2250.7 2478.02 2253.6 2476.63 2256.28 2474.83 2258.75 2473.65 2261.42 2472.46 2264.3 2471.5 2266.95 2469.89 2269.64 2467.09 2275.21 2466.11 2278.08 2464.72 2280.75 2463.74 2283.63 2461.91 2286.32 2460.77 2288.77 2459.76 2291.86 2458.59 2294.53 2457.83 2297.39 2456.41 2300.29 2455.46 2302.94 2454.04 2305.83 2453.09 2308.49 2452.52 2311.56 2450.88 2314.47 2450.3 2315.8 2449.82 2314.29 2449.25 2311.7 2449.01 2306.26 2449.31 2303.63 2448.79 2300.6 2448.9 2297.76 2448.8 2294.93 2449.1 2292.3 2448.77 2289.48 2449.12 2286.41 2448.75 2284.03 2448.96 2278.35 2448.88 2275.3 2449.1 2269.63 2448.75 2267.03 2448.8 2264.62 2449.38 2261.55 2449.48 2258.71 2449.27 2253.05 2450.03 2250.18 2449.85 2246.05 2450.33 2241.89 2450.27 2238.62 2450.6 2235.77 2450.73 2232.71 2450.84 2229.88 2451.17 2227.03 2451.28 2224.19 2451.15 2221.58 2451.28 2218.52 2451.15 2215.91 2451.06 2212.86 2450.49 2210.27 2450.41 2207.22 2448.92 2199.43 2447.7 2196.86 2444.94 2192.62 2441.01 2189.07 2438.74 2188.08 2436.72 2186.85 2434.42 2186.08 2427.39 2185.06 2419.77 2185.37 2417.06 2186.36 2414.13 2187.35 2410.96 2188.57 2408.41 2189.99 2403.58 2194.33 2401.56 2196.81 2399.38 2198.86 2397.55 2201.56 2396.14 2204.45 2394.62 2208.22 2395.04 2212.12 2397.26 2213.56 2400.47 2213.86 2403.99 2211.54 2407 2207.92 2408.61 2205.24 2412.98 2201.14 2415.79 2199.27 2418.97 2198.05 2422.69 2197.68 2426.78 2197.95 2428.85 2198.73 2431.34 2199.72 2433.51 2201.59 2434.97 2203.93 2435.98 2206.51 2436.33 2209.11 2436.87 2211.92 2437.6 2216.9 2437.52 2219.52 2438.04 2222.56 2437.52 2225.19 2437.27 2231.09 2437.16 2233.93 2436.84 2236.78 2436.34 2239.2 2436.23 2242.04 2436.51 2245.29 2436.27 2249.23 2436.45 2253.36 2435.77 2264.95 2435.88 2267.78 2435.75 2270.83 2435.85 2273.66 2436.21 2276.27 2435.77 2281.95 2435.85 2285 2436.18 2287.82 2436.31 2290.43 2436.4 2293.48 2436.5 2296.31 2436.2 2298.94 2436.55 2301.54 2436.42 2304.6 2436.69 2309.82 2437.01 2312.64 2437.31 2315.68 2437.23 2318.3 2437.78 2321.11 2437.91 2323.73 2439.24 2329.12 2439.4 2331.51 2439.97 2334.11 2441.23 2338.2 2443.3 2340.94 2445.62 2341.5 2448.28 2340.95 2451.43 2339.95 2453.61 2337.9 2456.38 2334.52 2459.5 2324.36 2460.21 2321.93 2461.41 2319.05 2462.2 2315.96 2463.8 2313.28 2464.76 2310.62 2465.96 2307.74 2466.74 2304.65 2468.35 2301.97 2470.26 2296.66 2471.46 2293.77 2473.06 2291.09 2474.45 2288.42 2475.65 2285.54 2476.63 2282.66 2477.59 2280 2479.6 2277.52 2480.58 2274.65 2483.61 2269.07 2484.8 2266.19 2487.56 2261.06 2490.97 2255.9 2493.53 2250.56 2495.6 2247.64 2496.99 2244.97 2498.59 2242.29 2501.35 2237.16 2506.99 2229.51"/><polygon class="cls-7" points="2527.47 2222.78 2523.2 2222.3 2519.2 2223.12 2516.8 2225.18 2515.03 2227.44 2513.7 2231.42 2513.61 2236 2514.69 2237.92 2517.29 2239.77 2521.33 2240.47 2525.13 2239.45 2528.13 2237.79 2530.15 2235.31 2531.5 2231.11 2531.35 2226.76 2529.64 2224.65 2527.47 2222.78"/><path class="cls-7" d="m2857.53,2276.27l-3.49,2.11-2.34,3.37-1.42,2.89-1.83,2.69-1.61,2.68-1.8,2.47-2.24,2.49-1.58,2.46-1.99,2.26-1.97,2.04-1.8,2.47-2.62,2.07-4.71,3.25-2.3,1.19-2.71.98-4.43.84-3.75.59-2.7-.98-2.46-1.21-1.73-1.89-1.49-2.12-1-2.58-.11-2.83-.54-2.81.26-4.15.07-4.36.54-2.86.11-2.84.96-2.66.54-2.86.81-3.3-.16-2.39.96-2.66.79-3.08.08-2.62.98-2.87,1-3.09.33-2.85.52-2.64.98-2.88.79-3.08,1.17-2.67.74-2.65.79-3.08.54-2.86,1.85-2.91,3.44-1.67,2.83-.12,3.24.08,2.61-.11,2.95.75,4.35-.18,3.37-1.01,1.58-2.46-.11-2.83-2.55-2.29-3.93-1.58-8.58-.73-3.1.56-2.44-1.43-1-2.57,1.77-5.96.33-2.85.76-2.87.3-2.63.52-2.64.95-2.66.33-2.85.54-2.86.48-4.16-1.51-3.86-2.49-.99-3.29.35-2.69.77-2.14,3.58-1.59,4.43-1.91,10.98-1.28,5.5-2.5,8.61-1.42,2.89-4.89,1.07-3.02-.09-3.75.59-1.61,2.68-1,3.09,2.96,2.5,4.37,1.56,2.63,1.64,1.15,3.22-.74,2.65-1.93,5.53-1.63,8.57-2.13,5.32-.76,2.87-.3,2.63-1.22,3.1-.08,2.62-1.17,2.66-.33,2.85-.57,3.08-.29,2.49-2.76,3.31-1.56,2.24-5.18,7.41-3.79,4.74-4.64,4.55-2.16,1.83-2.18,2.05-7.64,4.24-2.95,1.21-5.67,2.2-2.88.55-7.02.73-7.08-.58-5.24-1.53-1.57-1.46-2.36-2.08-1.92-2.1-1.05-2.14-.76-2.8-1.03-2.35-.76-2.8.35-3.07-.35-2.6.9-2.22,3.87.28,2.51.77,4.42,1.12,2.78.32,5.39.21,3.1-.56,2.64-.33,5.84-1.77,5.06-2.61,3.03-1.87,2.57-1.63,1.97-2.05,2.02-2.48,1.99-2.26,2.02-2.48.98-2.88,1.58-2.46,1.16-4.41.91-4.18-.28-3.26.08-2.62-.76-2.8-1-2.57-1.71-2.11-1.32-1.69-2.14-2.09-4.9-2.63-5.48-1.3-2.81-.1-11.83,1.14-3.85,1.47-7.1,3.35-4.97,3.69-2.21,2.27-2.38,1.84-2.02,2.48-1.56,2.24-3.84,5.17-1.83,2.69-.96,2.66-1.39,2.67-.95,2.66-1.22,3.1-.98,2.88-.57,3.08-.47,1.78-3.79,5.16-1.58,2.46-1.36,2.46-2.24,2.49-1.85,2.91-1.12,2.23-2.48,2.72-1.56,2.24-2.62,2.07-1.94,1.82-2.4,2.06-2.54,1.41-2.35,1.62-2.69.77-3.97.6-4.35.18-2.49-.99-2-1.44-1.98-1.66-3.17-4.45-.81-2.36-1.25-2.35-.57-2.59-.93-3.23-.11-2.83-.57-2.59.08-2.62.91-4.18,1.98-4.01,1.44-3.11,1.83-2.69,1.17-2.67,3.22-5.37,4.11-5.62,1.36-2.46,1.42-2.89,2.04-2.7,1.42-2.89.98-2.88,2.26-2.71,1.2-2.88,1.22-3.1,2.22-4.23,3.22-7.33,1.58-2.46.76-2.87,2.64-6,1-3.09.79-3.09,1.39-2.67,1.36-6.16.52-2.64,1.31-11.39-.97-4.76-2.33-4.26-1.57-1.46-4.13-1.79-2.34-.34-2.59-.11-4.21.83-4.99,1.95-4.19,2.57-2.14,1.61-1.8,2.47-2.21,2.27-2.04,2.7-4.36,7.81-1.36,2.46-1,3.09-1.17,2.67-.74,2.65-.98,2.87-.59,3.3-1.15,2.45-.54,2.86-1.5,5.51-1.25,3.32.11,2.83-1.52,5.73-.54,2.86-.74,2.65-.3,2.63.06,3.27-.7,4.17-.42,7.43-1.79,11.85.11,2.83-.35,3.07.08,3.05.18,4.76-3.09,3.65-1.17,2.66-1.39,2.67-2.02,2.48-3.17,4.93-2.21,2.27-1.83,2.69-2.38,1.84-2.6,1.85-3.68,1.9-4.62.63-1.59-1.24.54-2.86,1.36-2.46,1.63-2.9.76-2.87,3.81-8.66.54-2.86,1.16-4.41.94-4.4.57-3.08-.11-2.83.13-3.06.52-2.64-1.41-8.44-.76-2.8-1.25-2.35-1.27-2.13-1.71-2.11-2.17-1.87-2.24-1.22-4.71-2.42-5.78-.63-4.3-.26-5.93.68-4.43.84-2.71.98-2.91.77-2.96,1.21-4.9,3.04-2.84,2.08-4.37,4.1-1.58,2.46-2.02,2.48-2.23,2.49-1.17,2.67-2.23,2.49-1.2,2.88-1.66,3.12-.71,2.43-1.22,3.1-.74,2.65-.57,3.08-.08.36-.18.09-6.01,8.97-2.75,5.13-1.83,2.69-3.6,4.95-2.18,2.05-2.02,2.48-4.37,4.1-2.11,1.4-5.06,2.61-4.35.18-3.16-.74-2.19-1.65-.79-2.58-.96-3.01.11-2.84-.35-2.6.35-3.07.22-5.68.76-2.87.11-2.84,1.72-5.52.13-3.06.95-2.66-.08-3.05,1.96-5.75.33-2.85,2.29-8.6,1.2-2.88.54-2.86.29-4.37-.9-3.45-2.68-1.2-2.56-.33-2.96,1.21-2.75,3.17-2.98,7.1-1.31,5.72-2.01,6.19-.9,5.92-.38,3.29-.52,2.64-1.22,3.1-.33,2.85-1.36,6.16-.3,2.63.27,3.26-.76,2.87-.65,5.7.3,3.04.03,5.45.54,2.81.38,2.38.79,2.58,1.73,1.89.84,2.15,1.97,1.66,1.32,1.69,4.32,2,6.26.18,4.59-.41,5.57-1.32,2.33-1.41,2.52-1.19,2.6-1.85,2.81-1.86,1.97-2.04,1.56-2.25,2.4-2.06,2.02-2.48,1.99-2.26,1.78-2.25,1.41-2.89.9-1.14.04.45-.11,2.84,1.2,2.78.59,2.37,1.47,2.34,1.22,2.56,1.71,2.11,2.22,1.43,1.71,2.11,2.46,1.21,5.38,2.18,2.59.11,3.87.28,4.6-.41,2.64-.33,2.47-.76,2.93-1,3.66-1.68,6.74-3.99,3.39-1.23,3.48-.14,3.19.52,2.34.34,8.3-.56,2.69-.76,2.33-1.4,2.98-1.43,2.35-1.62,2.4-2.06,2.16-1.83,2.96-3.18,2.55-3.38,3.43-5.37,1.1-1.13.15,1.52.57,2.59,1,2.57.59,2.38,1.22,2.57.76,2.8,1.49,2.12,1.73,1.89,1.3,1.91,2.94,2.71,3.01,2.06,5.41,1.96,2.34.34,2.59.11,4.11.05,4.86-.85,2.3-1.19,3.12-.78,2.52-1.19,2.79-1.64,2.4-2.06,3.59-2.98,2.55-3.38,2.4-2.06,2.02-2.48,1.8-2.47,2.02-2.48,3.05-5.09.08.38.33,2.82.76,2.8.38,2.38,1,2.57,1.05,2.14,1.92,2.1,1.71,2.11,1.95,1.88,4,2.89,2.85,1.63,2.27,1,2.1.57,3.38.73,2.34.34,2.59.11,4.57-.19,9.84-.84,2.69-.77,2.9-.77,2.71-.99,3.37-1.01,7.18-4,7.59-5.76,2.4-2.06,1.97-2.04,1.99-2.26,2.43-2.28,2.02-2.48,1.36-2.45.07-.1.39,5.53.79,2.58.11,2.83,3.74,7.04,1.95,1.88,2.41,1.65,2.22,1.43,2.32.56,2.29.78,4.47.69,5.66-.23,3.99-.82,2.93-.99,2.47-.76,2.96-1.21,6.14-4.4,7.75-7.08,3.58-4.73,2.21-2.27,4.97-7.4,6.16-10.28,1.3-3.76.48-4.16-2-1.44-2.78-.32Zm-130.24-3.33l.95-2.66,1.61-2.68,2.04-2.7,2.8-3.6,4.08-3.44,2.13-1.61,2.11-1.4,3.15-1,4.45-1.06,4.16-.39,3.19.52,1.81,1.23,1.98,1.66,1.25,2.35.76,2.8-1.83,8.36-3.63,5.16-2.38,1.84-2.62,2.07-4.31,1.7-4.02,1.04-2.42.32-4.11-.05-4.47-.69-2.75-.54-2.7-.98-1.63-2.77.4-3.5Zm-69.09-15.24l.35-3.07.57-3.08.08-2.62.13-3.06,1.33-5.94.71-2.43.79-3.08.11-2.84,2.88-11.89,2.67-8.18,1.63-2.9.57-3.08,1.58-2.46.98-2.88,1.39-2.67,1.99-2.26,1.53-2.02,2.21-2.27,3.34-.79,2.63,1.63,1,2.57-.3,2.63-1.22,3.1-.35,3.07-.74,2.65-1.17,2.66-.54,2.86-.79,3.08-1.2,2.88-1.39,2.67-.54,2.86-1.36,2.46-.98,2.87-1.63,2.9-1.37,2.46-.98,2.87-2.39,5.77-1.83,2.69-1.17,2.67-1.56,2.24-1.66,3.12-.93,2.44-1.2,2.88-1.61,2.68-1.19.92-.94-1.27.54-2.86Zm-47.01,24.62l-.91,4.18-1.84,6.62-1.2,2.88-1.17,2.67-2.89,2.52-3.52,2.33-2.21,2.27-1.58,2.46-2.5,6.64-2.12,3.36-3.93,2.12-4.5,1.5-8.03.11-2.68-1.2-2-1.44-1.71-2.11-1.08-1.92-1.41-2.78-.52-3.03-.43-5.65.76-2.87.08-2.62.94-4.4,2.57-7.3.54-2.86,2.78-5.35.71-2.43,3.65-5.38,1.56-2.25,4.59-4.12,2.57-1.63,2.79-1.64,3.63-1.46,5.49-.66,4.71.46,2.29.78,2.24,1.22,1.98,1.66,1.49,2.12.76,2.8.35,2.6-.03,5.89.3,3.04-.54,2.86Z"/><path class="cls-7" d="m3420.79,2255.14l-1.78-1.45-2.27-1-3.03,1.87-3.01,3.61-1.17,2.67-2.07,2.92-1.58,2.46-1.8,2.47-1.37,2.45-1.56,2.24-2.02,2.48-6.17,6.58-1.99,2.26-2.76,1.42-2.33,1.4-3.48.14-3.6-.72-1.71-2.11-.52-3.03.52-2.64-.11-2.83-.35-2.6.76-2.87.57-3.08.98-2.88-.08-3.05.96-2.66,1.11-5.93,1.93-5.53.35-3.07,1.11-3.97.96-4.62-.08-3.05.3-2.63-.08-3.05-.33-2.82-1.68-2.33-1.03-2.36-2.19-1.65-2.03-1.22-2.7-.98-2.95-.75-4.16.39-3.92.16-2.85.34-2.74,1.2-2.71.98-4.9,3.04-2.6,1.85-2.57,1.63-1.97,2.04-2.18,2.05-1.78,2.25-1.82,2.69-3.4,3.19-.04-1.53.28-2.41,1-3.09,1.03-8.98-1.58-3.2-2.32-.56-2.61.11-2.88.56-2.75,3.17-1.78,4.22-.08,2.62-.33,2.85-1,3.09-.35,3.07-.52,2.64-1.5,5.51-.11,2.84-.57,3.08-.35,3.07-.74,2.65-.56,3.02-2.24,2.55-1.61,2.68-1.39,2.67-2.04,2.7-1.8,2.47-1.56,2.25-1.8,2.47-2.21,2.27-2.43,2.28-2.16,1.83-5.12,3.05-3.78.81-3.32.57-1.54-1.68.52-2.64,2.97-5.14,1.8-2.47,1.44-3.11,1.15-2.45,1.83-2.69,1-3.09.74-2.65,2.13-5.32.81-3.3.76-2.87.93-2.44,1.01-3.09,1.09-5.71.11-2.84.33-2.85-.11-2.83.54-2.86-.38-2.38-.98-2.79-1.31-3.65-2.31-2.52-3.02-.09-2.71.98-3.08,2.31-1.11,3.97.18,4.13.33,2.82.11,2.83-1.09,5.71-.79,3.09.13,2.61-.52,2.64-1.22,3.1-1.2,2.88-.74,2.65-.76,2.87-1.2,2.88-1.61,2.68-1.42,2.89-.93,2.44-3.37,2.97-3.06,2.09-2.33,1.41-1.78,2.25-1.8,2.47-.95,2.66-1.3,3.76-2.77,3.39-4.24,1.05-4.06-.49-1.76-1.67-1.27-2.13-.79-2.58-.8-4.33-.18-4.13-.11-2.83.11-2.84.54-2.86.76-2.87-.33-2.82.54-2.86.57-3.08.79-3.08.52-2.64-.13-2.61,1.55-5.95.11-2.84.95-2.65-.37-4.35-.44-3.69-3.14-.96-2.83.12-2.91.77-2.14,3.58-1.59,4.43-.85,5.49-.55,2.86-.68,5.92-.95,2.66-.54,2.86-1.47,5.29-.48,4.16-1.59,4.43-1.42,2.89-3.22,5.37-3.79,4.74-4.45,4.76-2.43,2.28-2.16,1.83-4.29,1.49-4.19.61-2.75-.54-2.27-1-1.93-2.1-1-2.58-.59-4.34-.39-4.13.13-3.06,1.09-5.71.52-2.64,1.06-5.5.76-2.87.33-2.85,1.2-2.88.33-2.85,1.69-5.3.38-3.29,1.17-2.66.52-2.64-.08-3.05.52-2.64.33-2.85.04-4.14-1.97-3.62-2.54-.55-2.83.12-2.55,1.42-2.17,3.79-1.35,4.2-.33,2.85-1.14,6.15-.98,2.87-.49,2.42-.55,2.86-1.55,5.95-.96,2.66-.54,2.86-1.55,5.95-.05.23-2.48,2.92-1.17,2.66-1.39,2.67-2.02,2.48-3.17,4.93-2.21,2.27-1.83,2.69-2.38,1.84-2.6,1.85-3.68,1.9-4.62.63-1.59-1.24.54-2.86,1.36-2.46,1.63-2.9.76-2.87,3.81-8.66.54-2.86,1.16-4.41.94-4.4.57-3.08-.11-2.83.13-3.06.52-2.64-1.41-8.44-.76-2.8-1.25-2.35-1.27-2.13-1.71-2.11-2.17-1.87-2.24-1.22-4.7-2.42-5.78-.63-4.3-.26-5.93.68-4.43.84-2.71.98-2.91.77-2.96,1.21-4.9,3.04-2.84,2.08-4.37,4.1-1.58,2.46-2.02,2.48-2.23,2.49-1.17,2.67-2.23,2.49-1.2,2.88-1.66,3.12-.71,2.43-1.22,3.1-.74,2.65-.57,3.08-.19.81-.12.08-2.6,3.81-1.58,2.46-1.85,2.91-1.39,2.67-1.83,2.69-1.56,2.24-3.14,4.71-6.61,6.6-2.81,1.86-2.14,1.62-2.3,1.19-2.71.98-4.4.62-3.46-.08-3.19-.52-2.49-.99-1.76-1.67-2.68-6.87.08-8.29,1-3.09.3-2.63.54-2.86,1.93-5.53.74-2.65.98-2.87,2.78-5.35,2.56-5.34,2.02-2.48,1.82-2.69,4.35-5.85,2.22-4.24.76-2.87-.35-2.6-1.2-2.79-2.03-1.22-4.11-.05-4.24,1.05-2.69.76-2.83.12-3-.31-2.1-.57-2.02-3.19-1.75-3.63-.76-2.8-1.52-1.9-2.51-.77-2.64.33-2.57,1.63-2.21,2.27-.98,2.88.14,2.61-.98,8.54-1.39,2.67-.54,2.86-1.39,2.67-1.22,3.1-1.41,2.89-1.15,2.45-.98,2.88-1.39,2.67-1.58,2.46-.96,2.66-1.15,2.45-1.77,2.25-1.63,2.9-.43,1.21-3.32,5.05-1.63,2.9-2.21,2.27-1.8,2.47-2.04,2.7-1.8,2.47-1.97,2.04-2.62,2.07-1.75,2.03-2.86,2.3-3.73,2.33-2.13,1.61-3.95,2.34-2.71.99-3.66,1.68-14.86,3.01-6.51.05-3-.31-2.54-.55-3.16-.74-2.08-.79-2.24-1.21-3.45-2.04-3.4-2.48-3.71-3.55-2.49-4.69-.54-2.81-1.05-2.14-.74-3.02-1-2.57.11-2.84-.79-2.58.08-2.62-.08-3.05.11-2.84-.11-2.83.52-2.64.33-2.85.54-2.86.33-2.85.96-4.62.7-4.17,1.17-2.66.95-2.66.55-2.86.79-3.08,1.39-2.67,3.13-8.41,1.61-2.68,1.58-2.46.95-2.66,1.61-2.68,1.58-2.46,1.61-2.68,1.39-2.67,2.21-2.27,5.4-7.42,6.14-6.36,2.65-2.29,5.95-4.61,9.21-4.74,2.47-.76,3.15-1,2.42-.32,4.13-.17,4.3.26,2.46,1.21,1.37,1.25,1.46,2.34,1.03,2.36.33,2.82-.33,2.85.16,2.39-1.2,2.88-.55,2.86-.95,2.66-1.83,2.69-1.15,2.45-1.35,4.2-.45,3.94,2.65,1.42,2.51.77,4.14-2.13,2.77-3.39,2.97-5.14,1.8-2.47,1.96-5.75.76-2.87.79-3.09.76-2.87.08-2.62.52-2.64-.87-5.63-.84-2.15-1.66-2.55-2.81-3.81-2.19-1.65-2.65-1.42-2.03-1.22-2.75-.54-2.54-.55-4.76-.02-3.7.15-3.31.57-2.69.77-3.07.34-2.52,1.19-5.42,1.97-2.76,1.42-2.54,1.41-2.96,1.21-5.19,3.7-2.38,1.84-4.37,4.1-2.4,2.06-6.36,6.37-1.83,2.69-4.01,4.74-1.63,2.9-1.8,2.47-1.37,2.46-2.04,2.7-1.15,2.45-1.85,2.91-1.17,2.66-1.58,2.46-1.01,3.09-1.39,2.67-.74,2.65-2.81,5.57-1.22,3.1-.3,2.63-1.17,2.66-.54,2.86-1.92,7.27-1.51,7.48-.57,3.08-.28,2.41-.13,3.06-.33,2.85.33,2.82-.54,2.86.3,3.04-.08,2.62.79,2.58.33,2.82.13,2.61.81,2.36,1.52,5.61,1.27,2.13.76,2.8,1.05,2.14,1.47,2.34,1.51,1.9,3.88,3.98,3.54,3.12,2.22,1.44,2.44,1.42,7.24,2.97,3.19.52,2.54.55,7.93.76,3.05-.13,14.52-1.91,2.47-.76,2.93-.99,2.69-.76,2.5-.98,10.81-5.46,2.57-1.63,2.13-1.61,4.37-4.11,2.62-2.07,1.94-1.82,2.02-2.48,2.45-2.5,1.56-2.24,3.58-4.73,1.77-2.25,2.97-5.14,1.39-2.67.67-1.36,1.88-2.01,1.61-2.68.96-2.66,2.07-2.92,2.37-5.55,1.63-2.9.71-2.43,5.44-11.56.93-2.44,2.65-2.29,3.07-.34,3.36.95,3.69,1.81-.25,2.19-1.2,2.88-3.41,5.16-1.41,2.89-.98,2.88-1.63,2.9-1.17,2.67-.98,2.88-1.39,2.67-1,3.09-.76,2.87-.74,2.65-1.22,3.1-.8,7.01.59,4.34-.54,2.86.13,2.61,1.25,2.35.79,2.58.54,2.81,1.51,1.9,1.95,1.88,1.98,1.66,4.22,2.88,8.09,1.19,8.1-.77,5.79-1.33,2.96-1.21,5.31-2.84,2.81-1.86,1.73-1.81,2.64-2.29,1.75-2.03,2.21-2.27,3.58-4.73,3.42-4.87.08.8-.11,2.84,1.2,2.78.59,2.37,1.46,2.34,1.22,2.56,1.71,2.11,2.22,1.43,1.71,2.11,2.46,1.21,5.38,2.18,2.59.11,3.87.28,4.6-.41,2.64-.33,2.47-.75,2.93-1,3.66-1.68,6.74-3.99,3.39-1.23,3.48-.14,3.19.52,2.34.34,8.3-.56,2.69-.76,2.33-1.41,2.98-1.43,2.35-1.62,2.4-2.06,2.16-1.83,2.96-3.18,2.55-3.38,1.05-1.64.06,1.38.11,2.83.33,2.82.79,2.58,1.22,2.56,1.49,2.12,1.25,2.35,1.51,1.9,2,1.44,3.93,1.58,3.96,1.36,2.61-.11,3.73-.37,4.89-1.07,2.5-.97,2.57-1.63,2.3-1.18,2.86-2.3,1.94-1.82,6-7.01,1.58-2.46,2.28-.97,1.57,1.46.79,2.58,1.19,4.75,1.49,2.12,3.71,3.55,2.22,1.43,2.7.98,2.56.33,3.89.06,4.21-.83,3.12-.78,3.68-1.9,3.73-2.33,3.83-1.25,3.51-.36,2.08.79,2.56.33,2.61-.11,8.56-1.01,2.49-.98,2.76-1.42,3-1.65,2.11-1.4,5-3.91,2.02-2.48,2.4-2.06,1.58-2.46.67-1.11-.07,1.52-.52,2.64-.79,3.09-.54,2.86.13,2.61-.54,2.86.2,3.92,2.02,3.19,2.34.34,2.86-.33,2.88-.56,2.34-3.37.45-3.94.79-3.08.5-2.42-.08-3.05.33-2.85.5-2.42.35-3.07.06-2.4.76-2.87.57-3.08.89-3.96,1.81-4.44.54-2.86,2.4-5.77,2.02-2.48,2.78-5.35,1.83-2.69,1.77-2.25,2.45-2.5,4.37-4.11,2.81-1.86,2.38-1.84,2.93-.99,2.5-.98,4.81-.42,3.84.5,1.73,1.89,1.44,2.56.33,2.82-1.16,4.41-.5,4.38-.96,2.66-.76,2.87-.59,3.29-.74,2.65-.33,2.85-1.52,5.73-.14,3.06-1.09,5.71-.3,2.63-.13,3.06-.57,3.08.33,2.82.81,2.36-.13,3.06,1,2.58,1.05,2.14,1.3,1.91,2.17,1.87,2.05,1,2.49.99,6.31-.26,7.38-2.05,3.01-1.65,1.89-1.39,2.81-1.86,1.97-2.04,2.62-2.07,1.97-2.04,1.61-2.68,2.21-2.27,1.78-2.25,1.61-2.68,2.21-2.27,3.16-4.93,1.61-2.68,1.58-2.46,1.2-2.88,2-4.23-.44-3.69Zm-266.77,4.72l-.91,4.18-1.84,6.62-1.2,2.88-1.17,2.67-2.89,2.52-3.52,2.33-2.21,2.27-1.58,2.46-2.5,6.64-2.12,3.36-3.93,2.12-4.5,1.5-8.03.11-2.68-1.2-2-1.44-1.71-2.11-1.08-1.92-1.42-2.78-.52-3.03-.43-5.65.76-2.87.08-2.62.94-4.4,2.57-7.3.54-2.86,2.78-5.35.71-2.43,3.65-5.38,1.56-2.24,4.59-4.12,2.57-1.63,2.79-1.64,3.63-1.46,5.49-.66,4.71.46,2.29.78,2.24,1.21,1.98,1.66,1.49,2.12.76,2.8.35,2.6-.03,5.89.3,3.04-.54,2.86Z"/></g><path class="cls-2" d="m3018.41,2013.63c-3.36,0-6.64.3-9.82.81-6.16-26.59-34.47-46.7-68.52-46.7-29.91,0-55.35,15.54-65.29,37.34-4.72-1.19-9.72-1.83-14.91-1.83-28.13,0-50.94,18.73-51.11,41.89h258.87c-5.63-18.11-25.5-31.52-49.22-31.52Z"/><path class="cls-2" d="m762.41,2383.93c-6.07,0-11.94.81-17.6,2.2-5.42-32.48-32.49-57.2-65.14-57.2-27.03,0-50.23,16.94-60.52,41.19-2.13-.16-4.26-.34-6.43-.34-27.72,0-52.49,13.17-68.91,33.84-11.09-12.09-26.62-19.7-43.92-19.7-33.65,0-60.93,28.49-60.93,63.64,0,2.53.2,5.01.49,7.46h399.16c-4.31-40-36.76-71.1-76.2-71.1Z"/><g><g><path class="cls-2" d="m372.07,724.23c2.67-16.5,16.29-26.82,33.09-27.6,16.79-.77,27.05,7.95,24.39,24.07l-.9,6.09c-.15,1.14-1.06,1.94-2.19,1.99l-13.51.62c-1.14.05-1.75-.67-1.6-1.82l.59-3.43c1.33-8-2.49-11.85-9.43-11.53-7.07.33-12.23,5.1-13.57,13.6l-6.49,38.84c-1.34,8.5,2.34,12.87,9.41,12.54,6.95-.32,12.08-4.08,13.42-12.58l1.03-6.09c.15-1.14-.46-1.87-1.6-1.82l-7.7.36c-1.14.05-1.75-.55-1.6-1.82l2.06-12.19c.15-1.14,1.06-1.94,2.19-1.99l24.88-1.15c1.14-.05,1.75.68,1.6,1.82l-4.13,24.75c-2.55,16.49-16.02,25.93-32.81,26.7-16.8.77-27.29-8.44-24.49-24.94l7.39-44.43Z"/><path class="cls-2" d="m458.45,787.63l14.96-91.38c.15-1.14.93-1.93,2.19-1.99l26.9-1.24c16.8-.77,27.02,9.21,24.78,23.42l-1.62,9.52c-1.05,6.85-5.38,13.85-12.96,19.49-.9.67-1.68,1.46-1.58,2.59l3.53,36.24c.2,2.01-1.07,2.69-2.46,2.76l-11.49.53c-1.89.09-2.78.13-2.98-1.75l-3.13-31.98c-.1-1.13-.71-1.86-2.1-1.79l-9.22.42c-1.14.05-2.04.85-2.19,1.99l-5.33,32.37c-.15,1.14-.93,1.93-2.19,1.99l-13.51.62c-1.14.05-1.75-.68-1.6-1.82Zm36.95-51.58c7.07-.33,12.38-5.86,13.41-12.08l.73-3.94c1.03-6.22-2.62-11.47-9.69-11.14l-9.47.44c-1.14.05-2.04.85-2.19,1.99l-3.85,23.35c-.15,1.14.46,1.87,1.6,1.82l9.47-.44Z"/><path class="cls-2" d="m573.29,691.65c.15-1.14.93-1.93,2.19-1.99l39.02-1.8c1.14-.05,1.75.67,1.6,1.82l-1.8,11.67c-.15,1.14-1.06,1.94-2.19,1.99l-21.85,1.01c-1.14.05-2.04.85-2.19,1.99l-3.27,20.18c-.15,1.14.46,1.87,1.6,1.82l21.72-1c1.14-.05,1.75.67,1.6,1.82l-1.92,11.68c-.15,1.14-1.06,1.94-2.19,1.99l-21.72,1c-1.14.05-2.17.86-2.32,2l-3.41,20.94c-.15,1.14.46,1.87,1.6,1.82l21.72-1c1.14-.05,1.75.68,1.6,1.82l-1.92,11.68c-.15,1.14-1.06,1.94-2.19,1.99l-39.02,1.8c-1.14.05-1.75-.68-1.6-1.82l14.96-91.38Z"/><path class="cls-2" d="m658.79,687.71c.15-1.14.93-1.93,2.19-1.99l39.02-1.8c1.14-.05,1.75.67,1.6,1.82l-1.8,11.67c-.15,1.14-1.06,1.94-2.19,1.99l-21.85,1.01c-1.14.05-2.04.85-2.19,1.99l-3.27,20.18c-.15,1.14.46,1.87,1.6,1.82l21.72-1c1.14-.05,1.75.67,1.6,1.82l-1.92,11.68c-.15,1.14-1.06,1.94-2.19,1.99l-21.72,1c-1.14.05-2.17.86-2.32,2l-3.41,20.94c-.15,1.14.46,1.87,1.6,1.82l21.72-1c1.14-.05,1.75.68,1.6,1.82l-1.92,11.68c-.15,1.14-1.06,1.94-2.19,1.99l-39.02,1.8c-1.14.05-1.75-.68-1.6-1.82l14.96-91.38Z"/><path class="cls-2" d="m738.47,684.04c.15-1.14,1.06-1.94,2.19-1.99l44.2-2.04c1.14-.05,1.88.54,1.6,1.82l-1.93,12.05c-.15,1.14-1.06,1.94-2.19,1.99l-11.62.54c-1.14.05-2.04.85-2.19,1.99l-12.3,75.51c-.15,1.14-.93,1.93-2.19,1.99l-13.51.62c-1.14.05-1.75-.68-1.6-1.82l12.43-75.52c.15-1.14-.46-1.87-1.6-1.82l-11.62.54c-1.14.05-1.75-.55-1.6-1.82l1.93-12.05Z"/><path class="cls-2" d="m810.77,771.39l14.96-91.38c.15-1.14.93-1.93,2.19-1.99l13.51-.62c1.14-.05,1.75.67,1.6,1.82l-14.96,91.38c-.15,1.14-.93,1.93-2.19,1.99l-13.51.62c-1.14.05-1.75-.68-1.6-1.82Z"/><path class="cls-2" d="m873.15,768.52l14.96-91.38c.15-1.14,1.06-1.94,2.19-1.99l11.24-.52c1.77-.08,2.77.25,3.24,1.49l17.92,51.45c.23.74,1.12.45,1.27-.31l8.46-52.16c.15-1.14,1.06-1.94,2.19-1.99l13.13-.61c1.14-.05,1.75.67,1.6,1.82l-14.96,91.38c-.15,1.14-1.06,1.94-2.19,1.99l-11.36.52c-1.52.07-2.52-.14-2.99-1.37l-17.92-51.57c-.23-.74-1.25-.45-1.4.32l-8.58,52.16c-.15,1.14-1.06,1.94-2.19,1.99l-13.01.6c-1.14.05-1.75-.68-1.6-1.82Z"/><path class="cls-2" d="m988.95,695.79c2.67-16.5,16.29-26.82,33.09-27.6,16.79-.77,27.05,7.95,24.39,24.07l-.9,6.09c-.15,1.14-1.06,1.94-2.19,1.99l-13.51.62c-1.14.05-1.75-.67-1.6-1.82l.59-3.43c1.33-8-2.49-11.85-9.43-11.53-7.07.33-12.23,5.1-13.57,13.6l-6.49,38.84c-1.34,8.5,2.34,12.87,9.41,12.54,6.95-.32,12.08-4.08,13.42-12.59l1.03-6.09c.15-1.14-.46-1.87-1.6-1.82l-7.7.36c-1.14.05-1.75-.55-1.6-1.82l2.06-12.19c.15-1.14,1.06-1.94,2.19-1.99l24.88-1.15c1.14-.05,1.75.68,1.6,1.82l-4.13,24.75c-2.55,16.49-16.02,25.93-32.81,26.7-16.79.77-27.29-8.44-24.49-24.94l7.39-44.43Z"/><path class="cls-2" d="m1077.71,733.77c.15-1.14,1.06-1.94,2.19-1.99l13.51-.62c1.14-.05,1.75.67,1.6,1.82l-.43,2.29c-1.02,5.72,2.54,9.83,9.61,9.51,6.82-.31,11.84-4.58,12.73-9.91l.42-1.91c1.03-6.22-5.84-8.93-14.79-14.31-9.32-5.62-20.54-11.27-18.18-25.23l.75-4.82c2.1-13.95,15.59-24.02,32.39-24.8,16.8-.77,26.79,8.21,24.56,22.17l-.75,4.82c-.15,1.14-.93,1.93-2.07,1.98l-13.64.63c-1.14.05-1.62-.68-1.47-1.82l.3-2.03c1.03-5.97-2.66-10.08-9.6-9.76-6.82.31-11.72,4.57-12.73,9.78l-.3,2.03c-1.03,6.22,4.97,8.46,14.54,14.19,8.95,5.38,20.79,11.39,18.3,25.36l-.75,4.82c-2.36,13.96-15.59,24.02-32.26,24.79-16.79.77-27.05-8.2-24.81-22.16l.87-4.83Z"/><path class="cls-2" d="m1244.73,660.7c.15-1.14.93-1.93,2.19-1.99l39.02-1.8c1.14-.05,1.75.67,1.6,1.82l-1.8,11.67c-.15,1.14-1.06,1.94-2.19,1.99l-21.85,1.01c-1.14.05-2.04.85-2.19,1.99l-3.71,22.72c-.15,1.14.46,1.87,1.6,1.82l21.72-1c1.14-.05,1.75.68,1.6,1.82l-1.92,11.68c-.15,1.14-1.06,1.94-2.19,1.99l-21.72,1c-1.14.05-2.04.85-2.19,1.99l-5.62,33.89c-.15,1.14-.93,1.93-2.19,1.99l-13.51.62c-1.14.05-1.75-.68-1.6-1.82l14.96-91.38Z"/><path class="cls-2" d="m1314.76,748.16l14.96-91.38c.15-1.14.93-1.93,2.19-1.99l26.9-1.24c16.79-.77,27.02,9.21,24.78,23.42l-1.62,9.52c-1.05,6.85-5.38,13.85-12.96,19.49-.9.67-1.68,1.46-1.58,2.59l3.53,36.24c.2,2.01-1.07,2.69-2.46,2.76l-11.49.53c-1.89.09-2.78.13-2.98-1.75l-3.13-31.98c-.1-1.13-.71-1.86-2.1-1.79l-9.22.43c-1.14.05-2.04.85-2.19,1.99l-5.33,32.37c-.15,1.14-.93,1.93-2.19,1.99l-13.51.62c-1.14.05-1.75-.68-1.59-1.82Zm36.95-51.58c7.07-.33,12.38-5.86,13.41-12.08l.73-3.94c1.03-6.22-2.62-11.47-9.69-11.14l-9.47.44c-1.14.05-2.04.85-2.19,1.99l-3.85,23.35c-.15,1.14.46,1.87,1.6,1.82l9.47-.44Z"/><path class="cls-2" d="m1423.98,675.99c2.8-16.76,16.43-27.08,33.22-27.86,16.79-.77,27.17,8.45,24.36,25.2l-7.12,43.91c-2.8,16.76-16.43,27.08-33.22,27.86-16.8.77-27.17-8.45-24.36-25.2l7.12-43.91Zm19.9,53.12c7.07-.33,12.11-5.09,13.58-13.85l6.36-38.33c1.47-8.76-2.2-13.12-9.28-12.8-7.07.33-12.23,5.1-13.71,13.86l-6.23,38.33c-1.47,8.76,2.2,13.12,9.28,12.8Z"/><path class="cls-2" d="m1514.03,738.98l14.96-91.38c.15-1.14,1.06-1.94,2.19-1.99l13.13-.61c1.52-.07,2.25.65,2.61,1.77l13.63,46.48c.23.75,1.12.7,1.52-.07l29.05-48.45c.66-1.16,1.81-1.97,3.33-2.04l13.01-.6c1.14-.05,1.75.67,1.6,1.82l-14.96,91.38c-.15,1.14-1.06,1.94-2.19,1.99l-13.51.62c-1.14.05-1.75-.68-1.6-1.82l7.99-48.48c.14-.76-.86-.84-1.26-.07l-16.95,27.86c-.66,1.16-1.69,1.97-3.2,2.04l-12.25.56c-1.39.06-2.25-.65-2.61-1.77l-7.8-26.72c-.23-.75-1.12-.58-1.27.18l-7.99,48.48c-.15,1.14-1.06,1.94-2.19,1.99l-13.64.63c-1.14.05-1.75-.68-1.6-1.82Z"/></g><g><rect class="cls-2" x="56.68" y="753.65" width="2267.09" height="3.8" transform="translate(-33.22 55.07) rotate(-2.61)"/><path class="cls-2" d="m2331.17,668.5l14.53,38.37,261.35-11.95s-17.9-46.66-228.53-1.55l-25.99-25.84-21.36.98Z"/></g></g><path class="cls-2" d="m3853.11,108.75v2555.8H108.75V108.75h3744.36M3961.85,0H0v2773.3h3961.85V0h0Z"/></svg>