<?xml version="1.0" encoding="UTF-8"?><svg id="_ÎÓÈ_1" xmlns="http://www.w3.org/2000/svg" viewBox="0 0 50 50"><defs><style>.cls-1{letter-spacing:.02em;}.cls-2{fill:#ba59ff;}.cls-3{fill:#fff;font-family:Roboto-Black, Roboto;font-size:48px;font-weight:800;}</style></defs><text class="cls-3" transform="translate(-41.62 -11.75)"><tspan x="0" y="0">A</tspan><tspan class="cls-1" x="32.7" y="0">r</tspan><tspan x="52.05" y="0">tboard 10_Logo</tspan></text><text class="cls-3" transform="translate(-53.62 88.25)"><tspan x="0" y="0">A</tspan><tspan class="cls-1" x="32.7" y="0">r</tspan><tspan x="52.05" y="0">tboard 11_Logo</tspan></text><path class="cls-2" d="m21.2,29.35c0,2.02-1.47,2.66-3.27,2.66h-4.73v-5.54h4.82c1.95.01,3.18.82,3.18,2.88h0Zm-.81-8.63c0-1.86-1.44-2.3-3.03-2.3h-4.15v4.7h4.48c1.58,0,2.7-.69,2.7-2.4h0Zm13.87,2.43c-1.92,0-3.2,1.19-3.32,3.11h6.52c-.18-1.94-1.18-3.11-3.2-3.11h0Zm14.35-16.13v36.89c0,2.78-2.25,5.03-5.03,5.03H6.69c-2.78,0-5.03-2.25-5.03-5.03V7.03c0-2.78,2.25-5.03,5.03-5.03h36.89c2.78,0,5.03,2.25,5.03,5.03Zm-18.48,11h8.15v-1.98h-8.15v1.98Zm-4.51,11.56c0-2.53-1.19-4.71-3.67-5.41,1.8-.86,2.75-1.86,2.75-3.88,0-4-2.99-4.98-6.43-4.98h-9.48v20.12h9.76c3.66-.02,7.08-1.77,7.08-5.86Zm15.86-1.55c0-4.31-2.53-7.9-7.08-7.9s-7.45,3.33-7.45,7.71,2.86,7.65,7.45,7.65c3.48,0,5.73-1.56,6.82-4.9h-3.53c-.39,1.25-1.95,1.9-3.17,1.9-2.35,0-3.57-1.37-3.57-3.7h10.5c.01-.24.03-.5.03-.75h0Z"/></svg>