<?xml version="1.0" encoding="UTF-8"?><svg id="_ÎÓÈ_1" xmlns="http://www.w3.org/2000/svg" viewBox="0 0 50 50"><defs><style>.cls-1{letter-spacing:.02em;}.cls-2{fill:#ba59ff;}.cls-3{fill:#fff;font-family:Roboto-Black, Roboto;font-size:48px;font-weight:800;}</style></defs><text class="cls-3" transform="translate(-60.62 -11.75)"><tspan x="0" y="0">A</tspan><tspan class="cls-1" x="32.7" y="0">r</tspan><tspan x="52.05" y="0">tboard 11_Logo</tspan></text><path class="cls-2" d="m46.3.93H4.87c-1.9,0-3.44,1.56-3.44,3.48v41.35c0,1.92,1.54,3.48,3.44,3.48h41.42c1.9,0,3.45-1.56,3.45-3.48V4.41c0-1.92-1.55-3.48-3.45-3.48Zm-30.26,41.41h-7.16v-23.06h7.17v23.06h-.01Zm-3.58-26.21c-2.3,0-4.15-1.87-4.15-4.15s1.85-4.15,4.15-4.15,4.15,1.87,4.15,4.15-1.85,4.15-4.15,4.15Zm30.42,26.21h-7.16v-11.22c0-2.67-.05-6.11-3.72-6.11s-4.3,2.91-4.3,5.92v11.41h-7.16v-23.06h6.87v3.15h.1c.96-1.81,3.3-3.72,6.78-3.72,7.25,0,8.6,4.78,8.6,10.99v12.64Z"/></svg>