<?xml version="1.0" encoding="UTF-8"?><svg id="_ÎÓÈ_1" xmlns="http://www.w3.org/2000/svg" viewBox="0 0 125 50"><defs><style>.cls-1{fill:#b35eff;}</style></defs><path class="cls-1" d="m32.62,8.7c2.62,1.12,3.79,4.25,2.61,7-3.79,8.54-7.58,17.08-11.36,25.63-1.92.01-10.67.06-13.12.08,9.05-20.46,13.57-30.7,13.57-30.7.42-.56,1.34-1.6,2.84-2.23,2.66-1.1,5.02,0,5.46.22Z"/><circle class="cls-1" cx="36.28" cy="35.72" r="5.68"/><g><path class="cls-1" d="m53.46,37.69h4.2v1.28h-5.8v-9.24h1.61v7.96Z"/><path class="cls-1" d="m61.14,36.76l1.4-4.66h1.64l-2.73,7.91c-.42,1.16-1.13,1.73-2.13,1.73-.22,0-.47-.04-.74-.11v-1.2l.29.02c.39,0,.68-.07.88-.21.2-.14.35-.38.47-.71l.22-.59-2.41-6.83h1.66l1.45,4.66Z"/><path class="cls-1" d="m64.78,35.49c0-1.06.25-1.91.74-2.55.49-.64,1.15-.96,1.97-.96.73,0,1.32.25,1.76.76v-3.52h1.54v9.75h-1.4l-.08-.71c-.46.56-1.08.84-1.85.84s-1.45-.32-1.95-.97c-.5-.65-.75-1.53-.75-2.64Zm1.54.13c0,.7.13,1.24.4,1.63.27.39.65.59,1.15.59.63,0,1.09-.28,1.38-.84v-2.93c-.28-.55-.74-.83-1.37-.83-.5,0-.88.2-1.16.59-.27.4-.41.99-.41,1.79Z"/><path class="cls-1" d="m72.41,30.32c0-.24.08-.43.23-.59.15-.16.37-.23.64-.23s.5.08.65.23.23.35.23.59-.08.43-.23.58c-.15.15-.37.23-.65.23s-.49-.08-.64-.23c-.15-.15-.23-.35-.23-.58Zm1.64,8.65h-1.54v-6.87h1.54v6.87Z"/><path class="cls-1" d="m79.83,38.97c-.07-.13-.13-.34-.18-.64-.49.51-1.09.77-1.8.77s-1.25-.2-1.69-.59-.65-.88-.65-1.46c0-.73.27-1.29.82-1.69.54-.39,1.32-.59,2.33-.59h.95v-.45c0-.36-.1-.64-.3-.85-.2-.21-.5-.32-.91-.32-.35,0-.64.09-.86.26-.22.18-.34.4-.34.67h-1.54c0-.38.12-.73.37-1.06.25-.33.59-.59,1.02-.77.43-.19.91-.28,1.44-.28.8,0,1.45.2,1.92.61.48.4.72.97.74,1.7v3.1c0,.62.09,1.11.26,1.48v.11h-1.57Zm-1.69-1.11c.3,0,.59-.07.86-.22.27-.15.47-.35.61-.6v-1.29h-.83c-.57,0-1,.1-1.29.3s-.43.48-.43.84c0,.3.1.53.3.71.2.18.46.26.79.26Z"/><path class="cls-1" d="m91.32,36.82h-3.58l-.75,2.15h-1.67l3.49-9.24h1.44l3.5,9.24h-1.68l-.76-2.15Zm-3.13-1.29h2.68l-1.34-3.83-1.34,3.83Z"/><path class="cls-1" d="m96.29,38.97h-1.54v-9.75h1.54v9.75Z"/><path class="cls-1" d="m98.51,38.97v-5.73h-1.05v-1.14h1.05v-.63c0-.76.21-1.35.63-1.76s1.02-.62,1.78-.62c.27,0,.56.04.86.11l-.04,1.21c-.17-.03-.37-.05-.59-.05-.74,0-1.1.38-1.1,1.14v.61h1.4v1.14h-1.4v5.73h-1.54Z"/><path class="cls-1" d="m102.29,35.48c0-.67.13-1.28.4-1.82.27-.54.64-.95,1.12-1.24.48-.29,1.04-.43,1.66-.43.93,0,1.68.3,2.26.9.58.6.89,1.39.94,2.37v.36c0,.68-.12,1.28-.38,1.82-.26.53-.63.95-1.12,1.24-.48.29-1.04.44-1.68.44-.97,0-1.74-.32-2.33-.97-.58-.65-.87-1.51-.87-2.58v-.08Zm1.54.13c0,.71.15,1.26.44,1.66.29.4.7.6,1.22.6s.93-.2,1.22-.61c.29-.41.44-1,.44-1.78,0-.69-.15-1.24-.45-1.65-.3-.41-.7-.61-1.22-.61s-.9.2-1.2.6c-.3.4-.44,1-.44,1.79Z"/><path class="cls-1" d="m113.57,33.51c-.2-.03-.41-.05-.63-.05-.71,0-1.18.27-1.43.81v4.7h-1.54v-6.87h1.47l.04.77c.37-.6.89-.9,1.55-.9.22,0,.4.03.55.09v1.45Z"/><path class="cls-1" d="m114.26,35.49c0-1.06.25-1.91.74-2.55.49-.64,1.15-.96,1.97-.96.73,0,1.32.25,1.76.76v-3.52h1.54v9.75h-1.4l-.08-.71c-.46.56-1.08.84-1.85.84s-1.45-.32-1.95-.97c-.5-.65-.75-1.53-.75-2.64Zm1.54.13c0,.7.13,1.24.4,1.63.27.39.65.59,1.15.59.63,0,1.09-.28,1.38-.84v-2.93c-.28-.55-.74-.83-1.37-.83-.5,0-.88.2-1.16.59-.27.4-.41.99-.41,1.79Z"/></g></svg>